<?xml version="1.0" encoding="UTF-8" standalone="no"?>
<!-- Created with Inkscape (http://www.inkscape.org/) -->

<svg
   version="1.1"
   id="svg1"
   width="549.37585"
   height="1099.9111"
   viewBox="0 0 549.37585 1099.9111"
   sodipodi:docname="path1.svg"
   inkscape:version="1.3 (0e150ed6c4, 2023-07-21)"
   inkscape:export-filename="body-svg-front.svg"
   inkscape:export-xdpi="96"
   inkscape:export-ydpi="96"
   xmlns:inkscape="http://www.inkscape.org/namespaces/inkscape"
   xmlns:sodipodi="http://sodipodi.sourceforge.net/DTD/sodipodi-0.dtd"
   xmlns="http://www.w3.org/2000/svg"
   xmlns:svg="http://www.w3.org/2000/svg">
  <defs
     id="defs1" />
  <sodipodi:namedview
     id="namedview1"
     pagecolor="#ffffff"
     bordercolor="#000000"
     borderopacity="0.25"
     inkscape:showpageshadow="2"
     inkscape:pageopacity="0.0"
     inkscape:pagecheckerboard="0"
     inkscape:deskcolor="#d1d1d1"
     inkscape:zoom="0.7391506"
     inkscape:cx="2051.6793"
     inkscape:cy="650.0705"
     inkscape:window-width="1920"
     inkscape:window-height="1009"
     inkscape:window-x="-8"
     inkscape:window-y="-8"
     inkscape:window-maximized="1"
     inkscape:current-layer="g11" />
  <g
     inkscape:groupmode="layer"
     inkscape:label="Image"
     id="g1"
     transform="translate(-3569.3705,-73.45844)">
    <g
       id="g10"
       transform="translate(1336.6694,5.4116169)">
      <g
         id="g9">
        <g
           id="g12">
          <g
             id="g11">
            <g
               id="g13">
              <g
                 style="display:none"
                 id="body-front"
                 inkscape:label="body-front"
                 inkscape:export-filename="body-svg-front.svg"
                 inkscape:export-xdpi="96"
                 inkscape:export-ydpi="96">
                <g 
                   class="svg-group"
                   id="head-front"
                   inkscape:label="head-front">
                  <path
                     style="fill:currentColor"
                     d="m 1841.4651,229.05661 c -1.1233,-1.30264 -1.7789,1.80349 -1.7774,8.93945 0,10.86725 1.5915,14.33189 8.918,19.42383 2.9815,2.07211 5.7695,3.76758 6.1953,3.76758 0.7599,0 -0.4238,-2.90444 -7.3769,-18.08594 -1.9108,-4.17208 -4.0207,-9.2393 -4.6875,-11.25976 -0.4714,-1.42831 -0.8971,-2.35095 -1.2715,-2.78516 z"
                     id="path9" />
                  <path
                     style="fill:currentColor"
                     d="m 1901.8499,228.43161 c -0.2501,0.10996 -0.5436,0.77421 -1.0547,2.07031 -0.6106,1.5483 -1.1094,3.01432 -1.1094,3.25782 0,0.2435 -2.2925,5.50236 -5.0957,11.68554 -2.8032,6.1832 -5.4934,12.25469 -5.9766,13.49219 -1.1532,2.95328 -0.81,2.8757 5.6914,-1.2832 7.1565,-4.57792 9.5723,-9.58051 9.2871,-19.23047 -0.1094,-3.70547 -0.5345,-7.63633 -0.9433,-8.73633 -0.3422,-0.92082 -0.5488,-1.36581 -0.7988,-1.25586 z"
                     id="path8" />
                  <path
                     style="fill:currentColor"
                     d="m 1892.1858,199.23239 -3.5,0.0391 c -1.925,0.0216 -6.6455,0.58271 -10.4902,1.24805 -5.4966,0.95116 -8.4885,0.94683 -14,-0.0215 -3.8553,-0.67731 -8.5848,-1.23066 -10.5098,-1.23047 h -3.5 l 2.6191,1.42383 c 1.5871,0.86248 3.2255,3.11186 4.1563,5.70898 0.8449,2.35755 4.1546,10.71247 7.3555,18.56641 4.1654,10.22062 6.2436,14.19802 7.3125,13.99218 1.3293,-0.256 8.7637,-16.74559 14.0625,-31.19531 0.9931,-2.70836 2.8608,-5.7366 4.1503,-6.72851 z"
                     id="path7" />
                  <path
                     style="fill:currentColor"
                     d="m 1841.6858,193.83981 v 10.5 c 0,9.9784 0.2268,11.12175 4.5527,22.92578 5.1311,14.00121 11.1756,27.03969 14.4844,31.24415 2.8727,3.65036 4.1556,2.39523 4.7383,-4.63086 0.5816,-7.01413 -2.2806,-18.27857 -8.211,-32.31055 -6.6004,-15.61752 -10.2901,-22.7748 -13.1015,-25.41602 z"
                     id="path6" />
                  <path
                     style="fill:currentColor"
                     d="m 1901.7522,193.68747 -3.9922,4.33203 c -2.4761,2.68712 -5.1209,7.24462 -6.9648,12 -1.6352,4.21708 -4.3913,10.77558 -6.1231,14.57422 -5.9648,13.08375 -8.7183,29.48932 -5.8496,34.84961 l 1.1367,2.125 1.9766,-2.44141 c 3.082,-3.8041 9.0262,-16.24466 14.3027,-29.93945 4.5863,-11.90309 4.8316,-13.04916 5.1641,-24 z"
                     id="path5" />
                  <path
                     style="fill:currentColor"
                     d="m 1869.4241,68.406269 c -11.4521,0.357657 -14.4902,0.828561 -22.5176,3.5 -5.1036,1.698445 -10.8319,4.272145 -12.7285,5.71875 -10.9742,8.37044 -15.4779,31.366991 -10.5274,53.753911 1.0572,4.78069 2.2305,11.4182 2.6075,14.75 0.3769,3.3318 1.0776,6.05859 1.5566,6.05859 1.1053,0 0.9023,1.59049 1.8164,-14.25391 0.7023,-12.17279 1.0766,-14.18453 3.2539,-17.5 3.2644,-4.97087 4.7997,-9.6502 4.8047,-14.64453 0.01,-5.74278 3.0264,-10.359081 7.1992,-11.000001 3.1362,-0.48169 23.6242,-1.76754 26.7969,-1.68164 12.1563,0.32916 26.0574,1.42275 28.1172,2.21094 3.4276,1.31156 4.6813,3.93038 5.8047,12.115231 0.6151,4.48149 2.0005,8.62133 4.1269,12.33789 2.9612,5.17553 3.2328,6.43002 3.6328,16.75586 0.5085,13.12613 1.0882,16.84196 2.2852,14.64649 0.4456,-0.81723 1.1252,-3.96133 1.5098,-6.98633 0.3845,-3.025 1.5595,-9.52888 2.6113,-14.45312 5.3141,-24.87963 -1.1907,-48.147002 -15.336,-54.859381 -1.8637,-0.884422 -7.5255,-2.795658 -12.582,-4.246094 -8.3545,-2.396483 -10.4016,-2.598362 -22.4316,-2.222656 z"
                     id="path2" />
                </g>
                <g class="svg-group"
                   id="shoulders-front"
                   inkscape:label="shoulders-front">
                  <path
                     style="fill:currentColor"
                     d="m 1907.4885,229.81052 c -1.7703,1.09413 -0.4903,21.67908 1.541,24.77929 1.5941,2.43279 2.1944,2.59495 9.4297,2.56055 8.422,-0.0401 20.7316,-2.06945 22.3457,-3.68359 0.6848,-0.68472 -0.873,-2.06839 -4.8027,-4.26758 -7.08,-3.96218 -16.6989,-10.71739 -22.877,-16.06445 -2.524,-2.18455 -5.0605,-3.68033 -5.6367,-3.32422 z"
                     id="path11" />
                  <path
                     style="fill:currentColor"
                     d="m 1835.6799,229.68356 c -0.5535,-0.34213 -3.591,1.5982 -6.75,4.3125 -6.5132,5.59647 -15.8313,12.04739 -23.3164,16.14063 -5.7905,3.16658 -5.5373,3.47818 4.5723,5.59766 8.0385,1.68527 20.6559,1.79736 22.7988,0.20312 0.9241,-0.6875 2.1354,-3.67415 2.6914,-6.63672 1.3015,-6.93696 1.3041,-18.81363 0,-19.61719 z"
                     id="path10" />
                  <path
                     style="fill:currentColor"
                     d="m 1772.9846,250.56052 c -11.9925,-1.25347 -24.5349,4.98981 -38.0605,18.94531 -8.3483,8.61358 -11.9299,15.43424 -12.8809,24.5332 -1.395,13.34721 5.6981,27.35002 17.8242,35.1875 3.3706,2.17852 6.8227,3.96094 7.6719,3.96094 3.1551,0 17.9122,-17.62467 20.0098,-23.89844 0.625,-1.86958 1.1367,-7.84762 1.1367,-13.2832 0,-11.00755 1.2576,-15.29283 5.6992,-19.42383 3.0704,-2.85569 11.6672,-7.42773 17.5508,-9.33398 2.54,-0.82295 3.75,-1.81037 3.75,-3.06055 0,-5.37937 -11.8493,-12.4927 -22.7012,-13.62695 z"
                     id="path14" />
                  <path
                     style="fill:currentColor"
                     d="m 1970.3225,250.64252 c -1.833,0.15083 -3.6615,0.45974 -5.4883,0.92773 -7.0438,1.80454 -14.6962,5.90281 -16.1718,8.66016 -2.2395,4.18445 -1.2471,5.45287 6.8457,8.76172 8.4412,3.4513 15.7109,8.92488 17.3867,13.09179 0.5757,1.4317 1.1788,7.63629 1.3418,13.78711 0.2235,8.43862 0.7734,12.24276 2.2383,15.5 1.9443,4.32334 15.0304,20.18752 17.4336,21.13477 4.5725,1.80235 16.7396,-7.27896 22.1699,-16.54688 8.5144,-14.53181 6.1844,-31.75626 -6.0684,-44.85546 -13.8285,-14.78378 -26.8563,-21.51677 -39.6875,-20.46094 z"
                     id="path15" />
                </g>
                <g class="svg-group"
                   id="chest-front"
                   inkscape:label="chest-front">
                  <path
                     style="fill:currentColor"
                     d="m 1914.262,263.68744 c -22.0393,0 -23.66,0.49063 -29.3164,8.88672 -7.3703,10.93994 -9.8426,30.22802 -7.3164,57.08594 1.4047,14.93506 3.7508,21.29542 9.8164,26.62109 4.6648,4.09576 14.6808,8.66328 21.4843,9.79687 8.1371,1.35578 11.5459,1.22908 21.3243,-0.78906 16.5031,-3.40604 24.663,-9.06863 30.6289,-21.2539 4.659,-9.51609 6.1839,-17.16553 6.2461,-31.34766 0.1114,-25.42719 -5.1878,-34.82631 -25.2383,-44.76172 l -8.5547,-4.23828 z"
                     id="path19" />
                  <path
                     style="fill:currentColor"
                     d="m 1810.0022,263.68744 -9.5332,4.73242 c -12.1246,6.01753 -19.7043,13.63927 -22.3594,22.48828 -4.261,14.20145 -2.6313,38.25094 3.5098,51.79492 6.1775,13.62429 15.6842,20.03245 34.8965,23.52149 15.5381,2.8218 35.9321,-4.01777 43.1172,-14.46094 3.7343,-5.42762 4.6676,-9.31686 6.123,-25.52734 1.4037,-15.63435 0.736,-32.2094 -1.6133,-40.04883 -2.7067,-9.03254 -7.4211,-16.94878 -11.8359,-19.87109 -3.9424,-2.60968 -4.1174,-2.62891 -23.1387,-2.62891 z"
                     id="path18" />
                </g>
                <g class="svg-group"
                   id="biceps-front"
                   inkscape:label="biceps-front">
                  <path
                     style="fill:currentColor"
                     d="m 1737.0881,341.18744 c -4.9177,0 -13.6055,10.66366 -20.0488,24.60938 -4.1812,9.04958 -6.3396,22.17368 -6.3476,38.59179 -0.01,10.09204 0.2346,11.83957 1.7441,12.71875 2.2795,1.32771 2.3002,1.32692 7.1406,-0.38086 6.8283,-2.40917 10.6555,-6.09013 14.918,-14.3457 7.1731,-13.89281 12.2055,-30.8364 12.1797,-41.00781 -0.027,-10.56348 -4.5961,-20.18555 -9.586,-20.18555 z"
                     id="path30" />
                  <path
                     style="fill:currentColor"
                     d="m 1977.9768,323.45111 c -1.4003,-0.46676 -3.8882,7.45118 -5.8008,18.46485 -1.7207,9.90911 -0.784,15.89314 5.4981,35.12695 7.615,23.3147 19.7964,47.39107 28.8242,56.97265 3.725,3.95347 5.9066,3.81815 8.4434,-0.52539 l 1.8632,-3.1914 -7.1543,-16.30664 c -15.6435,-35.65222 -22.6118,-55.06856 -27.3554,-76.22266 -1.7166,-7.65532 -3.6605,-14.09907 -4.3184,-14.31836 z"
                     id="path27" />
                  <path
                     style="fill:currentColor"
                     d="m 1765.6116,322.77533 c -1.0257,-0.60593 -2.047,3.04397 -4.4571,13.99023 -4.5431,20.63447 -11.8383,41.06311 -26.9023,75.33594 -4.1617,9.46851 -7.5664,17.80032 -7.5664,18.51563 0,0.71532 0.9323,2.48638 2.0723,3.93554 1.1399,1.44917 2.6741,2.63477 3.4082,2.63477 2.1383,0 9.6086,-9.01739 14.9511,-18.04688 10.9753,-18.54936 23.273,-52.25745 24.2442,-66.45312 0.5367,-7.84609 -1.3918,-19.40353 -4.6719,-28 -0.3948,-1.03458 -0.7362,-1.71013 -1.0781,-1.91211 z"
                     id="path26" />
                  <path
                     style="fill:currentColor"
                     d="m 2006.1975,341.27534 c -2.9317,-0.17361 -5.2725,2.08574 -7.2949,6.93555 -1.9849,4.75975 -2.2325,6.78481 -1.8965,15.47656 0.3174,8.20886 1.0472,11.97277 4.0762,21.01367 6.5922,19.67635 12.8352,28.66856 22.2304,32.01758 4.7687,1.69982 5.0427,1.7163 7.4395,0.43359 1.7207,-0.92089 1.9315,-2.16302 1.9141,-11.25 -0.011,-5.61814 -0.6778,-15.16355 -1.4825,-21.21093 -1.2303,-9.24624 -2.16,-12.42764 -5.8437,-20 -5.12,-10.52495 -12.1659,-20.40311 -16.0039,-22.4375 -1.1187,-0.59297 -2.1614,-0.92065 -3.1387,-0.97852 z"
                     id="path31" />
                </g>
                <g class="svg-group"
                   id="abs"
                   inkscape:label="abs">
                  <path
                     style="fill:currentColor"
                     d="m 1838.9475,498.25208 c -6.5272,-0.0267 -12.2143,0.25223 -13.164,0.85352 -1.1148,0.70579 -1.2587,2.59685 -0.7071,9.23437 1.9245,23.1554 6.8006,51.3961 11.7813,68.22657 5.9323,20.04642 13.3975,31.62267 23.3222,36.16601 2.7534,1.26044 5.2904,2.32795 5.6387,2.37305 1.6571,0.21436 2.0289,-8.16427 2.5703,-58.05078 l 0.5821,-53.63477 -2.4258,-1.58984 c -1.3346,-0.87443 -5.5613,-2.04202 -9.3926,-2.5957 -4.3093,-0.62277 -11.6779,-0.95576 -18.2051,-0.98243 z"
                     id="path77" />
                  <path
                     style="fill:currentColor"
                     d="m 1903.9553,498.23648 c -6.6825,0.019 -14.0595,0.33759 -17.7695,0.94336 -3.3,0.53881 -7.2858,1.50898 -8.8574,2.1582 l -2.8574,1.18164 0.371,55.08399 c 0.2039,30.29624 0.7191,55.63195 1.1465,56.30273 1.0843,1.70169 11.1915,-2.85092 15.4278,-6.94922 11.5412,-11.1655 21.5444,-47.29884 26.3339,-95.13281 0.9942,-9.92897 0.962,-12.00506 -0.1894,-12.73438 -0.9355,-0.59256 -6.9229,-0.87251 -13.6055,-0.85351 z"
                     id="path76" />
                  <path
                     style="fill:currentColor"
                     d="m 1789.3518,477.92007 c -1.2191,1.97257 -2.6518,17.50985 -3.2148,34.85938 l -0.6153,18.9082 13.2871,14.38477 c 7.3072,7.91123 14.6549,14.98121 16.3301,15.71093 1.6753,0.72973 4.3375,1.34374 5.9141,1.36524 2.4686,0.0337 2.7929,-0.27332 2.3418,-2.21094 -2.8103,-12.07006 -3.7924,-19.21939 -5.1875,-37.75 -0.8903,-11.82499 -1.8608,-22.47193 -2.1563,-23.66016 -0.3061,-1.23107 -3.4373,-4.08979 -7.2793,-6.64453 -3.7083,-2.46584 -9.4834,-7.02105 -12.834,-10.12304 -3.3505,-3.10199 -6.3141,-5.27953 -6.5859,-4.83985 z"
                     id="path72" />
                  <path
                     style="fill:currentColor"
                     d="m 1953.4553,478.38296 c -0.9743,0.0513 -3.0688,1.6087 -7.291,5.29102 -4.0366,3.52046 -9.8133,8.04254 -12.8379,10.05078 -3.0246,2.00823 -5.7576,4.32744 -6.0742,5.15234 -0.3165,0.8249 -1.2563,10.56877 -2.0879,21.6543 -1.6332,21.7719 -2.9004,32.00666 -4.4766,36.15234 -0.5509,1.44914 -1.0019,3.50416 -1.0019,4.56836 0,1.44678 0.6977,1.93555 2.7656,1.93555 4.9624,0 9.2889,-3.39096 22.3965,-17.55273 l 12.9082,-13.94727 -0.5996,-17 c -0.6025,-17.07232 -1.963,-33.01159 -3.0625,-35.87695 -0.1131,-0.29483 -0.3139,-0.44483 -0.6387,-0.42774 z"
                     id="path73" />
                  <path
                     style="fill:currentColor"
                     d="m 1883.2835,456.27752 c -3.1563,-0.0686 -5.9141,0.0949 -7.0157,0.51758 -1.3472,0.51696 -1.582,2.87905 -1.582,15.9336 0,16.0518 0.6992,19.98197 3.6934,20.75976 1.9882,0.5165 23.8796,-0.0925 31.8144,-0.88476 6.4839,-0.64742 7.453,-1.32909 8.541,-6.01954 1.1061,-4.76819 1.2132,-21.43577 0.1485,-23.11132 -0.6682,-1.05152 -9.5868,-3.20496 -26.1973,-6.32227 -2.6916,-0.50512 -6.2461,-0.80446 -9.4023,-0.87305 z"
                     id="path65" />
                  <path
                     style="fill:currentColor"
                     d="m 1789.926,446.13884 -0.6992,8.40235 c -1.1446,13.74092 -0.2621,16.93127 6.5098,23.5371 3.1825,3.1045 8.6259,7.32431 12.0957,9.37696 3.4698,2.05266 6.43,3.73242 6.5801,3.73242 0.15,0 0.2734,-5.33923 0.2734,-11.86523 V 467.4572 l -7.75,-6.37305 c -4.2625,-3.50439 -9.8326,-8.30025 -12.3789,-10.6582 z"
                     id="path59" />
                  <path
                     style="fill:currentColor"
                     d="m 1861.4514,456.25992 c -3.1418,-0.0954 -7.0415,0.19171 -10.7656,0.89062 -15.3872,2.88773 -25.6112,5.24788 -26.4727,6.10938 -1.3502,1.35024 -1.0916,18.42466 0.3575,23.63476 0.6436,2.31428 1.7102,4.54273 2.3711,4.95117 0.6608,0.40844 7.0609,1.05581 14.2226,1.4375 15.6243,0.83272 24.3509,0.47493 25.8867,-1.06054 1.6798,-1.67931 2.2322,-32.61068 0.6172,-34.55664 -0.6913,-0.83294 -3.0749,-1.31088 -6.2168,-1.40625 z"
                     id="path64" />
                  <path
                     style="fill:currentColor"
                     d="m 1788.8713,421.28336 -0.6738,5.79688 c -0.7218,6.21927 0.4178,12.15531 3.0527,15.9043 0.8879,1.2632 6.3826,6.39121 12.211,11.39453 9.2463,7.93744 10.6933,8.85544 11.3418,7.20312 0.9721,-2.47703 1.0664,-18.5836 0.1172,-19.96094 -0.4041,-0.5863 -2.9844,-2.57606 -5.7344,-4.42187 -2.75,-1.84581 -8.4467,-6.18262 -12.6582,-9.63672 z"
                     id="path53" />
                  <path
                     style="fill:currentColor"
                     d="m 1953.6858,446.11344 -7.25,6.29492 c -3.9875,3.46122 -9.4327,8.06887 -12.1016,10.24024 -2.6688,2.17136 -5.2723,5.05144 -5.7851,6.40039 -0.5234,1.37656 -0.6358,6.76515 -0.2559,12.28125 l 0.6758,9.82812 5.0742,-2.73632 c 2.7903,-1.50434 8.3508,-5.88798 12.3574,-9.74219 l 7.2852,-7.00781 v -12.7793 z"
                     id="path58" />
                  <path
                     style="fill:currentColor"
                     d="m 1954.6858,421.22866 -8.1973,6.61718 c -4.5084,3.63983 -10.5834,8.14599 -13.5,10.01172 l -5.3027,3.39063 v 10.9707 c 0,6.03309 0.3414,10.96875 0.7578,10.96875 0.7864,0 6.8483,-4.91056 16.668,-13.5 8.525,-7.45707 9.5742,-9.63067 9.5742,-19.84766 z"
                     id="path52" />
                  <path
                     style="fill:currentColor"
                     d="m 1879.9202,409.83022 c -2.3488,-0.23793 -3.3067,1.04398 -4.1875,3.71289 -1.3891,4.20887 -0.7704,36.32144 0.7285,37.82031 0.59,0.59002 3.6942,1.42816 6.8984,1.86328 5.7617,0.78242 24.3225,0.38989 31.5762,-0.66797 l 3.75,-0.54687 -0.025,-5.16211 c -0.027,-5.78838 -1.4219,-13.01278 -3.1738,-16.43555 -1.485,-2.90118 -8.2748,-7.37735 -23.0254,-15.17773 -6.4515,-3.41168 -10.1923,-5.16833 -12.541,-5.40625 z"
                     id="path49" />
                  <path
                     style="fill:currentColor"
                     d="m 1864.1487,409.61342 c -1.5307,-0.46636 -4.0609,0.83502 -13.9121,5.95508 -18.7915,9.76667 -22.098,12.35277 -24.0059,18.77734 -0.8501,2.86272 -1.5449,8.02827 -1.5449,11.47852 v 6.27344 l 3.25,0.54687 c 1.7875,0.3013 5.95,0.71407 9.25,0.91797 10.7174,0.66221 25.8384,-0.38389 28.25,-1.95508 2.2017,-1.43446 2.25,-1.86907 2.25,-20.28711 0,-17.8649 -0.1075,-18.92039 -2.1055,-20.72851 -0.5221,-0.47251 -0.9214,-0.82307 -1.4316,-0.97852 z"
                     id="path48" />
                  <path
                     style="fill:currentColor"
                     d="m 1949.6272,405.65053 c -0.8333,-0.51501 -17.9363,10.57858 -19.6504,12.74609 -1.2447,1.57391 -2.3459,11.86806 -1.582,14.78907 0.3725,1.42447 1.0699,1.91644 2.1347,1.50781 1.9412,-0.7449 16.5986,-10.67466 20.4981,-13.88672 l 2.8398,-2.33984 -1.7304,-6.16602 c -0.9517,-3.39185 -2.0804,-6.38502 -2.5098,-6.65039 z"
                     id="path47" />
                  <path
                     style="fill:currentColor"
                     d="m 1965.8577,386.35347 c -0.4559,0.18333 -3.3809,3.35875 -6.5,7.05468 -6.3279,7.49795 -6.6147,8.78913 -4.0039,18.09375 1.881,6.70388 2.2502,6.578 6.7871,-2.31445 3.5597,-6.97735 6.3109,-23.87732 3.7168,-22.83398 z"
                     id="path45" />
                  <path
                     style="fill:currentColor"
                     d="m 1793.76,405.64253 c -0.4002,0.24737 -1.5719,3.23216 -2.6015,6.63281 l -1.8711,6.18164 2.9492,2.41406 c 1.6221,1.32741 6.9171,5.09202 11.7656,8.36524 4.8485,3.2732 9.2361,5.95117 9.75,5.95117 1.0316,0 1.2972,-12.88871 0.3184,-15.43945 -0.7274,-1.89554 -19.2512,-14.76019 -20.3106,-14.10547 z"
                     id="path46" />
                  <path
                     style="fill:currentColor"
                     d="m 1776.9534,385.18745 c -0.2825,-0.275 -0.3128,3.10866 -0.068,7.51953 0.4364,7.87606 2.9977,15.52008 7.5235,22.45117 l 1.6113,2.47071 1.8301,-6.47071 c 1.0058,-3.5586 1.829,-7.3707 1.83,-8.4707 0,-1.51669 -8.9404,-13.81358 -12.7265,-17.5 z"
                     id="path44" />
                  <path
                     style="fill:currentColor"
                     d="m 1929.1252,380.41597 c -0.694,0.694 -1.475,30.90315 -0.8261,31.95312 1.0067,1.62899 3.2757,0.73745 9.0273,-3.54687 8.7036,-6.48321 12.0439,-10.32601 10.7539,-12.3711 -1.5342,-2.43227 -18.3405,-16.64968 -18.9551,-16.03515 z"
                     id="path43" />
                  <path
                     style="fill:currentColor"
                     d="m 1813.8069,380.18745 c -1.2919,0 -18.1592,14.93687 -18.8242,16.66992 -0.6856,1.78656 6.2943,9.17861 12.6718,13.41992 6.0793,4.04292 7.5425,3.58398 7.4903,-2.35351 -0.1689,-19.19212 -0.5811,-27.73633 -1.3379,-27.73633 z"
                     id="path42" />
                  <path
                     style="fill:currentColor"
                     d="m 1776.7639,366.13081 c -0.6668,0.31136 -1.048,1.69363 -1.0625,4.10937 -0.019,3.21821 6.7867,17.38718 10.4219,21.69727 3.2004,3.79454 3.1309,3.81859 11.7109,-4.14258 6.3235,-5.86737 6.3409,-5.89635 3.8516,-6.92187 -14.1046,-5.81079 -20.1609,-9.20786 -22.1484,-12.42383 -1.1554,-1.86947 -2.1067,-2.62972 -2.7735,-2.31836 z"
                     id="path39" />
                  <path
                     style="fill:currentColor"
                     d="m 1860.1077,361.66206 c -2.7661,0.21014 -7.1163,2.00788 -14.6407,5.51562 -18.9122,8.81662 -21.6973,10.57754 -23.5156,14.85547 -2.7061,6.36669 -1.7466,24.733 1.9551,37.4043 0.6025,2.0625 1.4287,3.75 1.8359,3.75 0.4073,0 7.8737,-4.34102 16.5918,-9.64648 8.7182,-5.30546 17.5575,-10.49965 19.6426,-11.54297 2.1519,-1.07671 4.2518,-3.06714 4.8574,-4.60352 1.4574,-3.69717 0.2768,-27.25126 -1.5898,-31.71875 -1.1891,-2.84579 -2.3706,-4.22381 -5.1367,-4.01367 z"
                     id="path37" />
                  <path
                     style="fill:currentColor"
                     d="m 1966.551,365.29292 -4.1836,4.29492 c -3.0608,3.14307 -6.6618,5.31264 -13.4316,8.08984 -5.0875,2.08708 -9.25,4.15955 -9.25,4.60547 0,0.44592 3.1745,3.54326 7.0547,6.88282 3.8801,3.33955 7.5249,5.78098 8.0996,5.42578 1.969,-1.21695 8.7789,-12.61077 10.8574,-18.16602 1.2933,-3.45668 1.8462,-6.60553 1.4649,-8.3418 z"
                     id="path38" />
                  <path
                     style="fill:currentColor"
                     d="m 1882.4729,361.57026 c -2.0755,0.0747 -2.9284,1.3911 -4.1738,3.5293 -1.6433,2.82135 -2.061,5.77823 -2.4219,17.08594 -0.4965,15.55702 -0.076,16.99972 5.8438,20.01953 2.1822,1.11329 7.0049,3.98428 10.7167,6.3789 3.7119,2.39463 10.7802,6.65964 15.7071,9.47852 4.9269,2.81888 9.2836,5.125 9.6816,5.125 1.8274,0 4.3594,-15.97473 4.3594,-27.5 0,-15.59918 -0.6019,-16.74404 -11.6699,-22.19141 -17.7277,-8.72509 -24.5839,-12.05036 -28.043,-11.92578 z"
                     id="path36" />
                  <path
                     style="fill:currentColor"
                     d="m 1779.7952,351.18745 c -1.743,0 -1.3078,8.10061 0.6425,11.9668 1.8791,3.72494 5.2059,6.00452 14.1075,9.66601 6.4434,2.65042 10.9544,3.01333 11.748,0.94531 0.9861,-2.56971 -1.4786,-5.33516 -8.0215,-8.99414 -3.5452,-1.98259 -8.9033,-5.84924 -11.9062,-8.59375 -3.003,-2.7445 -5.9599,-4.99023 -6.5703,-4.99023 z"
                     id="path32" />
                  <path
                     style="fill:currentColor"
                     d="m 1963.635,351.37495 c -1.0326,-0.0116 -2.9898,1.48675 -6.3965,4.49023 -2.9183,2.57293 -8.3719,6.54579 -12.1191,8.82813 -7.498,4.56681 -9.0905,6.34002 -8.0742,8.98828 1.0083,2.62759 6.9295,1.48849 16.3183,-3.13867 8.6782,-4.27695 10.3368,-6.45389 11.1192,-14.5957 0.2919,-3.03844 0.1849,-4.56068 -0.8477,-4.57227 z"
                     id="path33" />
                </g>
                <g class="svg-group"
                   id="forearm-front"
                   inkscape:label="forearm-front">
                  <path
                     style="fill:currentColor"
                     d="m 1733.3362,460.26776 c -0.1971,0.23134 -0.9207,3.99161 -1.6074,8.35742 -2.4785,15.75688 -9.5789,33.03498 -19.545,47.5625 -3.2071,4.675 -7.7785,12.64838 -10.1582,17.71875 -7.4434,15.85961 -21.3815,51.62795 -21.3183,54.70703 0.053,2.5878 7.2135,-11.69495 16.6992,-33.3125 5.6442,-12.86288 12.3555,-27.26289 14.916,-32 11.0181,-20.38443 15.4976,-29.38381 20.7656,-41.7168 3.0784,-7.20658 5.5977,-13.98917 5.5977,-15.07421 0,-1.84346 -4.5619,-7.16672 -5.3496,-6.24219 z"
                     id="path66" />
                  <path
                     style="fill:currentColor"
                     d="m 2009.9905,460.34976 c -0.5389,-0.11116 -1.4601,0.57421 -2.9903,2.01172 -3.037,2.8532 -2.9189,5.54286 0.5958,13.63086 1.6001,3.68235 4.7514,10.94431 7.0039,16.13672 2.2525,5.19239 7.6674,15.7674 12.0332,23.5 4.3658,7.73258 11.9507,23.2836 16.8554,34.55859 4.9048,11.27499 11.0331,24.70867 13.6192,29.85352 2.5861,5.14483 4.9136,9.14299 5.1718,8.88476 1.162,-1.16198 -15.4555,-43.54154 -22.8046,-58.1582 -2.2229,-4.42099 -6.6861,-11.93086 -9.918,-16.68946 -6.2161,-9.15256 -9.5798,-15.95941 -13.5391,-27.39062 -2.7886,-8.05142 -5.332,-19.28956 -5.332,-23.56445 0,-1.75318 -0.1565,-2.66228 -0.6953,-2.77344 z"
                     id="path67" />
                  <path
                     style="fill:currentColor"
                     d="m 1725.4299,448.37712 c -5.2297,-0.61914 -6.0215,1.10707 -12.0859,26.31055 -1.5066,6.2612 -5.1008,15.98207 -9.6133,26 -8.5092,18.89088 -15.8366,37.30794 -24.6367,61.92578 -6.2985,17.61958 -7.0741,20.57631 -5.7402,21.91016 2.0375,2.03755 5.3359,-4.15627 15.8886,-29.83594 8.0257,-19.53018 17.1761,-38.04717 25.2754,-51.15234 8.2349,-13.32451 13.9647,-29.35692 14.7735,-41.33008 0.6557,-9.70834 -0.3795,-13.41591 -3.8614,-13.82813 z"
                     id="path61" />
                  <path
                     style="fill:currentColor"
                     d="m 1707.6565,423.26578 c -0.5598,-0.0472 -1.2832,0.27922 -2.5469,0.94922 -3.9608,2.10008 -10.2212,11.01715 -17.6894,25.19727 -7.0233,13.33529 -7.4213,14.72908 -8.7364,30.59766 -0.4867,5.87287 -4.5246,28.85838 -8.9726,51.07812 -8.2552,41.23878 -9.782,50.68596 -8.6602,53.60938 0.3495,0.91068 1.1976,1.47817 1.8848,1.25976 2.0126,-0.63965 8.2025,-13.8585 14.7363,-31.47265 3.3409,-9.00656 11.198,-29.07025 17.461,-44.58594 12.3466,-30.58719 13.8441,-36.02973 15.6347,-56.85938 1.244,-14.47037 0.6442,-25.47669 -1.5508,-28.47851 -0.6051,-0.82759 -1.0007,-1.24772 -1.5605,-1.29493 z"
                     id="path54" />
                  <path
                     style="fill:currentColor"
                     d="m 2017.676,448.18767 c -2.6439,0 -2.9216,0.36103 -3.5625,4.63477 -2.1389,14.26333 4.4835,35.72518 17.0938,55.39843 7.4175,11.57213 18.3107,34.7993 29.4648,62.82618 1.8297,4.59752 4.4448,9.68738 5.8106,11.31054 1.8238,2.1675 2.7782,2.65458 3.5937,1.83594 0.8143,-0.81744 -0.063,-4.50003 -3.2851,-13.81055 -6.9243,-20.00731 -21.2486,-56.32446 -28.5,-72.25781 -5.1694,-11.35852 -7.2871,-17.51852 -9.6289,-28 -4.3149,-19.3121 -5.6296,-21.9375 -10.9864,-21.9375 z"
                     id="path60" />
                  <path
                     style="fill:currentColor"
                     d="m 2034.346,423.47086 c -0.484,0.23831 -0.867,0.73038 -1.1719,1.4668 -1.3637,3.29299 -1.7106,20.74292 -0.625,31.41797 1.8109,17.80826 3.7036,24.39204 15.209,52.91211 6.084,15.08147 14.0064,35.29409 17.6054,44.91797 6.0762,16.2479 11.152,27.75542 13.5625,30.75195 0.5531,0.6875 1.3689,1.25 1.8145,1.25 2.7877,0 1.7675,-11.26037 -3.0801,-34 -6.1594,-28.89319 -12.848,-65.91742 -13.459,-74.5 -0.3524,-4.95 -1.0801,-10.98208 -1.6172,-13.4043 -1.504,-6.78394 -14.627,-29.77448 -20.455,-35.83593 -3.9618,-4.12041 -6.3314,-5.69149 -7.7832,-4.97657 z"
                     id="path55" />
                </g>
                <g class="svg-group"
                   id="legs-upper-front"
                   inkscape:label="legs-upper-front">
                  <path
                     style="fill:currentColor"
                     d="m 1826.051,724.28928 -0.045,20.69922 c -0.025,11.38448 -0.5463,24.52422 -1.1562,29.19922 -4.281,32.81373 -4.0328,37.27526 2.3828,42.9082 6.4587,5.67085 7.9023,4.04329 8.789,-9.9082 0.3321,-5.22499 1.0788,-13.77501 1.6602,-19 1.9589,-17.60367 -2.1792,-42.78887 -9.8438,-59.9082 z"
                     id="path125" />
                  <path
                     style="fill:currentColor"
                     d="m 1917.1858,724.00803 -2.2168,5.0586 c -5.6403,12.86962 -10.2964,34.96345 -10.2461,48.62109 0.014,3.85 0.6727,11.72501 1.4629,17.5 0.7901,5.77499 1.4513,13.22328 1.4687,16.55078 0.018,3.32981 0.5701,6.58954 1.2305,7.25 1.9419,1.94191 3.7924,1.40682 7.3106,-2.11133 5.6134,-5.61339 6.0022,-9.2343 3.3437,-31.11523 -1.7448,-14.36063 -2.322,-24.34773 -2.3359,-40.41406 z"
                     id="path124" />
                  <path
                     style="fill:currentColor"
                     d="m 1764.5725,683.68381 c -0.3765,-0.20736 -0.6747,0.16149 -1.1308,0.97657 -0.6094,1.08881 -0.7506,4.65971 -0.3516,8.92187 0.3659,3.90835 1.3149,15.65548 2.1094,26.10547 2.2765,29.94545 6.7565,50.95599 13.8691,65.04492 1.9312,3.8255 5.0829,11.32111 7.0039,16.6582 1.921,5.33711 3.9856,10.62462 4.5879,11.75 0.6023,1.1254 1.7391,2.04688 2.5254,2.04688 5.2734,0 4.5701,-15.46099 -1.4805,-32.56055 -10.3801,-29.33517 -16.3278,-51.80444 -21.9843,-83.04101 -1.0061,-5.55541 -2.6025,-11.59356 -3.5469,-13.41992 -0.771,-1.49099 -1.2251,-2.27507 -1.6016,-2.48243 z"
                     id="path123" />
                  <path
                     style="fill:currentColor"
                     d="m 1978.8694,683.41428 c -0.3159,0.0642 -0.7431,0.69837 -1.5703,1.96094 -0.9326,1.42332 -2.3715,6.12708 -3.1973,10.45117 -6.7325,35.2539 -13.6879,62.36345 -21.0234,81.94531 -2.0254,5.40675 -4.2868,12.0994 -5.0254,14.87305 -1.5977,5.99931 -1.7894,17.88628 -0.332,20.60938 0.5693,1.06384 1.6519,1.93359 2.4062,1.93359 1.2226,0 6.1156,-10.31689 8.0625,-17 0.4006,-1.375 2.9605,-7.33757 5.6895,-13.25 5.9333,-12.85487 10.1439,-29.04333 12.2656,-47.16797 2.4168,-20.6458 4.4677,-50.60597 3.6211,-52.89453 -0.3766,-1.01795 -0.5806,-1.52513 -0.8965,-1.46094 z"
                     id="path122" />
                  <path
                     style="fill:currentColor"
                     d="m 1859.5862,662.23654 c -1.3337,0.0472 -13.1974,14.95634 -14.4043,18.10156 -0.3156,0.82234 1.0184,10.80879 2.9648,22.19141 1.9465,11.38261 3.5391,22.03797 3.5391,23.67773 0,5.47115 1.6913,3.06902 3.3594,-4.76953 2.2415,-10.53383 4.5978,-31.07363 5.334,-46.5 0.5043,-10.56844 0.3683,-12.74227 -0.793,-12.70117 z"
                     id="path117" />
                  <path
                     style="fill:currentColor"
                     d="m 1883.1897,662.03146 c -0.2836,-0.002 -0.4948,0.17429 -0.6738,0.49414 -1.5813,2.82549 2.5503,45.27402 5.8379,59.98242 0.8384,3.75127 1.7326,6.61306 1.9863,6.35938 0.2537,-0.25368 1.0648,-4.44774 1.8027,-9.32031 0.7379,-4.87258 2.5277,-15.5158 3.9785,-23.65235 l 2.6387,-14.79492 -2.2402,-3.20508 c -1.2322,-1.76344 -4.687,-6.29966 -7.6778,-10.08008 -3.292,-4.16123 -4.8015,-5.7761 -5.6523,-5.7832 z"
                     id="path116" />
                  <path
                     style="fill:currentColor"
                     d="m 1958.0276,572.51387 c -0.1907,0.1907 -1.6969,5.14962 -3.3457,11.02149 -1.6488,5.87186 -6.618,21.80822 -11.043,35.41406 -18.6039,57.20257 -22.9257,79.60358 -22.9453,118.93359 -0.017,35.06386 4.3749,64.54476 10.5332,70.70313 2.3316,2.33162 4.9536,0.53307 8.0078,-5.49414 6.1671,-12.17004 11.7813,-31.05577 24.8926,-83.73438 11.4489,-45.99932 12.9618,-54.59531 12.9688,-73.66992 0.01,-17.52631 -1.2441,-25.92782 -6.5059,-43.69141 -2.7624,-9.32565 -11.7132,-30.33174 -12.5625,-29.48242 z"
                     id="path87" />
                  <path
                     style="fill:currentColor"
                     d="m 1792.9417,566.1877 c -0.3159,-0.275 -0.2462,0.4 0.1543,1.5 1.9142,5.25836 18.6051,67.86874 26.5429,99.56445 10.8489,43.31959 18.139,75.79544 21.1973,94.43555 l 2.2969,14 1.9316,-7.5 c 2.7106,-10.52093 2.8428,-41.0888 0.2402,-55.5 -4.5703,-25.30758 -13.1736,-53.96598 -25.3691,-84.5 -7.142,-17.88159 -25.9578,-61.09761 -26.9941,-62 z"
                     id="path84" />
                  <path
                     style="fill:currentColor"
                     d="m 1785.0569,571.6877 -4.1406,8.5 c -12.4663,25.58851 -17.7603,58.08563 -13.8145,84.80273 2.104,14.24635 4.6835,25.74172 14.7481,65.69727 12.1322,48.16436 18.7337,68.74307 24.455,76.24414 3.0054,3.94021 3.6481,4.00399 6.3106,0.61914 9.4968,-12.07328 13.1899,-77.65501 6.5527,-116.36719 -2.1563,-12.57675 -7.7368,-34.43363 -13.2754,-51.99609 -14.1515,-44.87349 -18.2254,-57.95257 -19.4687,-62.5 z"
                     id="path86" />
                  <path
                     style="fill:currentColor"
                     d="m 1949.4729,568.43184 c -0.076,-0.10856 -0.3347,0.31386 -0.668,0.82813 -1.311,2.02285 -14.9121,32.86502 -21.3554,48.42773 -15.365,37.11142 -24.4292,66.43157 -29.9883,97 -0.7475,4.10999 -1.2727,15.05076 -1.2735,26.5 0,16.21285 0.3304,20.76429 1.9708,27 1.3224,5.02729 2.0784,6.67576 2.2929,5 1.2577,-9.82281 4.8586,-28.97849 8.7735,-46.66797 5.7145,-25.82175 24.0979,-98.69939 33.0019,-130.83203 6.0455,-21.81678 7.473,-26.93017 7.2461,-27.25586 z"
                     id="path85" />
                  <path
                     style="fill:currentColor"
                     d="m 1945.6858,556.30879 c 0,-0.72989 -3.1873,1.50039 -7.084,4.95508 -18.6728,16.55474 -37.395,48.2047 -46.9707,79.40625 -3.9092,12.73785 -4.1146,14.95437 -1.8711,20.20703 1.1302,2.64601 3.2352,6.04805 4.6777,7.56055 2.7058,2.837 4.6912,3.45883 5.7208,1.79297 0.325,-0.52588 4.4256,-11.66339 9.1113,-24.75 11.7971,-32.94826 20.2742,-54.09562 28.9863,-72.31055 4.0867,-8.54421 7.4297,-16.13145 7.4297,-16.86133 z"
                     id="path83" />
                  <path
                     style="fill:currentColor"
                     d="m 1796.762,554.09395 1.873,5.29687 c 1.0304,2.91303 4.1287,9.79689 6.8848,15.29688 7.7927,15.55089 16.2092,36.78243 31.2207,78.75 6.7483,18.86619 7.5718,19.96007 11.6582,15.5 3.223,-3.5178 6.5986,-10.94815 6.4746,-14.25 -0.1775,-4.7262 -5.7242,-22.32182 -10.7734,-34.17578 -10.6044,-24.89533 -24.5275,-45.59906 -40.4239,-60.10742 z"
                     id="path82" />
                </g>
                <g class="svg-group"
                   id="legs-lower-front"
                   inkscape:label="legs-lower-front">
                  <path
                     style="fill:currentColor"
                     d="m 1792.2893,1117.3463 c -0.1363,0.1884 -1.4411,2.4288 -2.9004,4.9785 -1.4592,2.5497 -7.1668,10.4247 -12.6836,17.5 -5.5168,7.0753 -9.916,13.5383 -9.7754,14.3633 0.4401,2.5808 10.6994,6.7604 19.5723,7.9746 4.574,0.6259 9.299,1.5355 10.5,2.0195 3.8421,1.548 3.8588,1.5264 5.1563,-6.4941 0.3558,-2.2 1.9702,-7.4745 3.5878,-11.7207 2.4927,-6.543 2.8854,-8.8191 2.5762,-14.9297 -0.3046,-6.0206 -0.736,-7.5122 -2.6191,-9.0371 -2.0898,-1.6921 -12.8548,-5.4271 -13.4141,-4.6543 z"
                     id="path152" />
                  <path
                     style="fill:currentColor"
                     d="m 1814.7053,1127.6768 c -1.4785,0.9138 -4.0195,9.7512 -4.0195,13.9805 0,3.6861 -1.1542,9.1391 -3.8203,18.041 -0.5112,1.7068 -0.5299,4.0136 -0.043,5.33 0.742,2.0057 1.3003,2.2246 4.1113,1.6211 5.011,-1.0758 6.6803,-2.2799 7.2676,-5.2402 0.2969,-1.4966 1.2952,-5.1417 2.2188,-8.1016 1.9223,-6.1612 1.8869,-9.2234 -0.1465,-12.3906 -0.7872,-1.2261 -2.1749,-4.8226 -3.084,-7.9922 -0.9091,-3.1695 -2.0269,-5.5307 -2.4844,-5.248 z"
                     id="path155" />
                  <path
                     style="fill:currentColor"
                     d="m 1802.9377,1062.3815 c -0.7956,0.01 -1.4976,0.392 -2.6699,1.1601 -3.4584,2.266 -5.3104,6.1903 -6.5312,13.832 -0.5656,3.5406 -1.9331,9.0688 -3.0391,12.2833 -1.106,3.2145 -2.0117,7.032 -2.0117,8.4843 0,3.459 5.0366,8.2456 16.1602,15.3535 4.7635,3.0439 9.6737,6.9019 10.9101,8.5743 1.2364,1.6723 2.5831,2.8321 2.9941,2.5781 1.7029,-1.0525 4.1291,-10.4973 4.6485,-18.1016 0.5658,-8.2833 -1.1335,-18.2759 -4.4707,-26.3027 -2.6577,-6.3923 -9.2908,-15.1112 -12.752,-16.7617 -1.553,-0.7404 -2.4426,-1.1077 -3.2383,-1.0996 z"
                     id="path148" />
                  <path
                     style="fill:currentColor"
                     d="m 1828.6858,889.84985 c 0,-2.31177 -17.1378,32.77038 -18.4277,37.72266 -1.6385,6.29029 -1.3086,12.77178 2.9101,57.11523 1.3605,14.3 2.7815,30.48626 3.1582,35.96886 0.4565,6.6437 0.9589,9.3118 1.5039,8 0.4498,-1.0826 2.8446,-10.1374 5.3223,-20.1211 2.4777,-9.98396 6.1336,-22.73436 8.125,-28.33409 6.0997,-17.15249 6.183,-32.10282 0.3867,-69.96484 -1.6378,-10.69819 -2.9785,-19.87218 -2.9785,-20.38672 z"
                     id="path140" />
                  <path
                     style="fill:currentColor"
                     d="m 1807.5393,1050.186 c -0.5329,0.1239 -0.8535,0.4311 -0.8535,0.9493 0,0.5209 2.1736,3.8184 4.8301,7.3281 2.6564,3.5096 5.6939,8.4845 6.75,11.0547 l 1.9199,4.6719 0.3008,-4.9551 c 0.4405,-7.2604 -1.2755,-12.3779 -5.3496,-15.9551 -2.4903,-2.1865 -5.999,-3.4654 -7.5977,-3.0938 z"
                     id="path146" />
                  <path
                     style="fill:currentColor"
                     d="m 1776.7131,873.79712 c -6.0301,5.83912 -6.6848,87.30168 -0.9414,117.11522 1.1418,5.9269 4.7855,22.25046 8.0977,36.27546 5.4088,22.9026 5.9753,26.3149 5.5644,33.5 -0.2519,4.4 -0.2543,8.5806 -0.01,9.291 0.367,1.0491 0.7418,1.0533 1.9922,0.016 2.3355,-1.9383 5.1298,-9.1938 6.2558,-16.2421 1.2523,-7.839 0.054,-15.23 -7.498,-46.2344 -4.7736,-19.59826 -7.4734,-32.88789 -12.6602,-62.33016 -1.3916,-7.89922 -1.5416,-35.58143 -0.3222,-59.5 0.4973,-9.75561 0.3769,-12.72273 -0.4825,-11.89062 z"
                     id="path139" />
                  <path
                     style="fill:currentColor"
                     d="m 1783.0686,842.82641 c -0.2883,0.16317 -0.5345,0.97752 -0.7578,2.39063 -1.4902,9.42996 -2.863,46.03226 -2.3184,61.80468 1.0331,29.91671 5.6074,67.00752 10.6641,86.46292 3.4557,13.29526 10.0373,33.32816 14.2871,43.48636 1.6757,4.0054 3.5408,7.1186 4.1445,6.918 1.584,-0.5261 1.953,-26.4321 0.6016,-42.2013 -1.7394,-20.29685 -5.2823,-43.39978 -15.4258,-100.55269 -2.484,-13.99591 -5.6419,-32.32694 -7.0176,-40.73438 -2.0761,-12.68883 -3.3129,-18.06373 -4.1777,-17.57422 z"
                     id="path134" />
                  <path
                     style="fill:currentColor"
                     d="m 1833.2385,835.45141 c -1.5938,0.68021 -3.281,4.91457 -5.5683,13.63281 -2.035,7.75636 -5.7328,17.23462 -11.8692,30.4336 -9.8575,21.20299 -12.1152,27.70065 -12.1152,34.85156 0,2.65018 0.4549,4.81836 1.0117,4.81836 3.8743,0 19.748,-34.0159 28.4649,-61 3.8131,-11.80423 4.3889,-19.53487 1.6582,-22.26562 -0.5289,-0.5289 -1.0508,-0.69744 -1.5821,-0.47071 z"
                     id="path131" />
                  <path
                     style="fill:currentColor"
                     d="m 1802.5178,824.35962 c -18.8328,-1.02436 -19.708,5.81378 -10.6269,33.80468 3.1405,9.68032 4.7824,13.21019 7.3222,15.75 1.8458,1.84574 4.298,3.27153 5.6231,3.26953 5.8017,-0.009 13.2101,-7.76519 16.543,-17.31836 2.4137,-6.91875 2.6323,-29.78971 0.3066,-32.08789 -0.8607,-0.85048 -5.1125,-1.93263 -9.9746,-2.53711 -3.4467,-0.4285 -6.503,-0.73452 -9.1934,-0.88085 z"
                     id="path129" />
                  <path
                     style="fill:currentColor"
                     d="m 1927.9631,1127.5768 c -0.2897,0.2898 -1.5349,3.3576 -2.7675,6.8183 -1.2327,3.4607 -2.8429,7.7351 -3.5782,9.4981 -1.1919,2.858 -1.0984,3.7818 0.8653,8.5195 1.2113,2.9226 2.2107,6.4306 2.2187,7.7949 0.022,3.5146 0.9991,4.6531 4.9863,5.8086 5.7252,1.6592 6.5106,1.1852 6.3946,-3.8496 -0.057,-2.4636 -0.8391,-6.9535 -1.7383,-9.9785 -0.8992,-3.025 -1.6395,-7.396 -1.6465,-9.7129 -0.012,-4.1955 -3.7317,-15.9011 -4.7344,-14.8984 z"
                     id="path154" />
                  <path
                     style="fill:currentColor"
                     d="m 1948.8694,1117.5729 c -1.7179,-0.1199 -4.1831,0.9484 -8.6836,3.1132 l -5,2.4043 -0.252,8.1289 c -0.2177,7.0497 0.1475,9.1256 2.75,15.625 1.6506,4.1221 3.0049,8.249 3.0079,9.17 0,0.9209 0.4833,3.3972 1.0683,5.5039 0.8347,3.0058 1.4252,3.6847 2.7442,3.1504 0.9244,-0.3744 4.6066,-1.1386 8.1816,-1.6973 9.4053,-1.4698 19.4039,-4.4795 22.0801,-6.6465 2.304,-1.8657 2.3055,-1.8984 0.4453,-4.7578 -1.0302,-1.5835 -5.8331,-7.9546 -10.6738,-14.1582 -4.8408,-6.2035 -10.0001,-13.3247 -11.4649,-15.8242 -1.5147,-2.5846 -2.4852,-3.8918 -4.2031,-4.0117 z"
                     id="path153" />
                  <path
                     style="fill:currentColor"
                     d="m 1939.0667,1062.6334 c -6.5799,1.4648 -14.7067,14.132 -18.3184,29.5156 -1.8818,8.0156 -2.0189,10.1131 -1.0996,16.7227 0.5782,4.1569 1.9362,9.5594 3.0176,12.0039 l 1.9648,4.4434 3.1641,-3.6016 c 1.7396,-1.9813 7.374,-6.3315 12.5215,-9.666 9.6358,-6.2422 14.3777,-10.7641 14.3554,-13.6895 -0.01,-0.9203 -1.0815,-5.0488 -2.3886,-9.1738 -1.3072,-4.125 -2.6917,-9.975 -3.0762,-13 -0.7687,-6.0476 -4.3201,-12.4845 -7.4336,-13.4727 -0.8592,-0.2727 -1.7671,-0.2912 -2.707,-0.082 z"
                     id="path149" />
                  <path
                     style="fill:currentColor"
                     d="m 1935.8752,1050.274 c -1.5175,-0.4583 -4.8507,0.6 -7.248,2.6172 -4.2139,3.5458 -5.9452,7.9278 -5.9297,15.0157 l 0.014,5.7812 3.041,-6 c 1.6731,-3.3 4.8184,-8.106 6.9883,-10.6797 2.1699,-2.5737 3.9453,-5.1612 3.9453,-5.75 0,-0.5105 -0.3047,-0.8316 -0.8106,-0.9844 z"
                     id="path147" />
                  <path
                     style="fill:currentColor"
                     d="m 1966.3713,873.78342 c -0.9603,-0.96829 -1.3105,2.67468 -0.6484,9.4043 0.46,4.675 0.8659,18.85001 0.9004,31.5 0.051,18.54354 -0.3314,25.42199 -1.9648,35.5 -3.2224,19.88037 -6.5163,35.9883 -11.8653,58.00008 -7.4489,30.6532 -8.6596,38.1474 -7.373,45.6582 0.5867,3.4254 2.212,8.7287 3.6113,11.7852 3.7319,8.1516 4.7426,7.209 4.5,-4.1934 -0.185,-8.6958 0.35,-12.0748 4.9414,-31.25 11.9743,-50.00874 12.5895,-54.93637 12.6328,-101.00008 0.031,-32.57357 -0.7276,-43.74619 -3.5859,-52.8418 -0.4412,-1.40375 -0.8283,-2.23973 -1.1485,-2.5625 z"
                     id="path138" />
                  <path
                     style="fill:currentColor"
                     d="m 1914.8635,891.26977 c -0.3226,-0.12525 -0.5019,0.16566 -0.625,0.73828 -0.3168,1.47399 -1.8914,11.69793 -3.498,22.72071 -5.2561,36.06221 -5.0746,49.1624 0.8945,64.66406 1.5603,4.05202 5.1543,16.57482 7.9863,27.83018 2.8321,11.2552 5.4558,21.1398 5.8301,21.9648 0.3794,0.8362 0.8097,-0.7125 0.9746,-3.5 0.1627,-2.75 1.4216,-17.375 2.7969,-32.50006 6.2748,-69.00925 6.6914,-62.28374 -5.3066,-85.92578 -5.8341,-11.49597 -8.0848,-15.61643 -9.0528,-15.99219 z"
                     id="path141" />
                  <path
                     style="fill:currentColor"
                     d="m 1959.6057,842.86741 c -0.4988,0.49883 -2.693,11.46202 -4.8769,24.36328 -2.184,12.90126 -6.204,36.05705 -8.9336,51.45703 -6.0464,34.11253 -10.6331,64.281 -12.0098,79 -1.7851,19.08678 -2.3715,40.74348 -1.1875,43.81058 0.5967,1.5456 1.4892,2.5601 1.9844,2.254 2.5526,-1.5775 12.7925,-30.4654 18.1113,-51.09388 4.692,-18.19744 9.2351,-54.92146 10.5918,-85.60351 0.9111,-20.6057 -1.7007,-66.16648 -3.6797,-64.1875 z"
                     id="path135" />
                  <path
                     style="fill:currentColor"
                     d="m 1909.6877,835.19165 c -0.3816,-0.004 -0.76,0.47744 -1.5019,1.4375 -2.7467,3.55446 -1.7878,10.61895 3.6328,26.76757 7.0349,20.95769 17.7218,44.81876 23.541,52.56055 3.3651,4.4769 4.7187,3.23466 3.9883,-3.6582 -0.8351,-7.88163 -2.7948,-13.26726 -11.6836,-32.11133 -6.9569,-14.74851 -10.8015,-25.11114 -13.9238,-37.53125 -0.5574,-2.21699 -1.6989,-4.91699 -2.5352,-6 -0.752,-0.9739 -1.1359,-1.46131 -1.5176,-1.46484 z"
                     id="path130" />
                  <path
                     style="fill:currentColor"
                     d="m 1949.2249,824.34592 c -1.7896,-0.25845 -4.5473,-0.0955 -10.0274,0.23633 -6.0565,0.36674 -12.6724,1.11453 -14.7031,1.66016 -3.4116,0.91666 -3.7441,1.33842 -4.377,5.55859 -1.0444,6.96484 0.1499,24.29979 2.0391,29.58203 1.8037,5.04304 8.5454,13.43504 11.9473,14.87305 2.9525,1.24807 7.6078,0.25518 10.1933,-2.17383 4.0243,-3.78058 12.3887,-30.47284 12.3887,-39.53515 0,-4.61396 -0.3546,-5.4798 -3.2383,-7.90626 -1.6115,-1.35599 -2.433,-2.03646 -4.2226,-2.29492 z"
                     id="path128" />
                </g>
                <g class="svg-group"
                   id="hands-fingers-front"
                   inkscape:label="hands-fingers-front">
                <path
                   style="fill:currentColor"
                   d="m 2116.8303,606.91432 2.8262,9.01172 c 1.554,4.95661 3.3816,10.05201 4.0625,11.32422 2.082,3.8903 10.2909,12.14474 13.4668,13.54102 1.65,0.72542 4.4625,1.33592 6.25,1.35742 2.8919,0.0348 3.248,-0.26395 3.2344,-2.71094 -0.021,-3.71839 -0.6065,-4.38587 -7.0879,-8.05664 -4.2509,-2.40748 -6.5881,-4.68542 -9.6758,-9.43359 -2.239,-3.44298 -6.0979,-8.23359 -8.5742,-10.64649 z"
                   id="path92" />
                <path
                   style="fill:currentColor"
                   d="m 2070.467,653.18761 c -0.1548,-3e-4 -0.1518,6.18721 0.01,13.75 0.1931,9.26102 0.7908,15.13762 1.832,18 3.0256,8.31783 4.063,5.30182 5.0118,-14.57227 l 0.6757,-14.15234 -3.6211,-1.51172 c -1.9916,-0.83218 -3.7491,-1.51337 -3.9043,-1.51367 z"
                   id="path106" />
                <path
                   style="fill:currentColor"
                   d="m 1652.5627,655.20319 c -2.2687,-0.0132 -2.6967,0.48979 -3.1757,3.73438 -0.3045,2.0625 -1.7782,11.9139 -3.2754,21.89258 -1.4972,9.97868 -2.4446,18.86619 -2.1055,19.75 0.7354,1.91653 3.0301,2.10051 4.4629,0.35742 0.5651,-0.6875 2.9431,-10.8528 5.2852,-22.58984 4.6054,-23.08037 4.6029,-23.11074 -1.1915,-23.14454 z"
                   id="path112" />
                <path
                   style="fill:currentColor"
                   d="m 1672.9026,653.26571 -3.3516,0.96094 c -1.8433,0.52865 -3.5358,0.96094 -3.7597,0.96094 -0.6646,0 0.6733,30.34398 1.4218,32.25 0.378,0.9625 1.0451,1.75 1.4825,1.75 1.9762,0 3.3213,-7.62015 3.7461,-21.21094 z"
                   id="path108" />
                <path
                   style="fill:currentColor"
                   d="m 2090.1995,655.18759 c -5.538,0 -5.5202,-0.43689 -0.875,22.68164 2.3852,11.87091 4.8465,22.19909 5.4707,22.95117 1.5021,1.80997 3.8106,1.73937 4.5312,-0.13867 0.3179,-0.82838 -0.1415,-5.89088 -1.0215,-11.25 -0.8799,-5.35911 -2.2904,-14.46915 -3.1347,-20.24414 -1.976,-13.51559 -2.1494,-14 -4.9707,-14 z"
                   id="path110" />
                <path
                   style="fill:currentColor"
                   d="m 2103.6331,651.39269 c -1.8955,-0.16198 -4.2856,0.32002 -5.3106,1.07031 -1.7884,1.30914 -1.7198,1.67724 1.7285,9.14063 1.9763,4.27735 6.3462,14.26107 9.711,22.18554 3.3648,7.92447 6.8625,14.84243 7.7715,15.37305 3.0618,1.78747 5.1523,1.20109 5.1523,-1.44531 0,-1.35907 -2.7662,-9.79658 -6.1465,-18.75 -3.3803,-8.95341 -6.891,-18.7543 -7.8027,-21.7793 -1.5581,-5.16931 -1.8645,-5.51812 -5.1035,-5.79492 z"
                   id="path104" />
                <path
                   style="fill:currentColor"
                   d="m 1639.7034,651.39269 c -2.8825,0.24382 -3.6424,0.81129 -4.416,3.29492 -0.514,1.65 -3.9631,11.16036 -7.6641,21.13477 -3.701,9.97442 -7.0359,19.53693 -7.4121,21.25 -0.6177,2.81251 -0.4511,3.11523 1.7207,3.11523 3.832,0 6.0748,-3.47011 13.2441,-20.5 3.7047,-8.79999 7.859,-18.22034 9.2325,-20.93359 2.4117,-4.76446 2.4327,-4.9802 0.6367,-6.29493 -1.0229,-0.7487 -3.4268,-1.22838 -5.3418,-1.0664 z"
                   id="path103" />
                <path
                   style="fill:currentColor"
                   d="m 2117.0647,641.50206 c -0.858,-0.32927 -3.0957,0.13322 -4.9707,1.02735 -4.0372,1.9252 -4.5656,5.30755 -1.291,8.2539 1.1645,1.04775 5.0619,6.17931 8.6601,11.4043 3.5982,5.22499 8.808,12.5375 11.5782,16.25 2.7701,3.7125 5.3976,6.75 5.8398,6.75 0.4422,0 0.8009,-1.6875 0.7969,-3.75 -0.01,-2.61731 -1.3943,-6.16641 -4.5977,-11.75 -2.5243,-4.4 -6.8099,-12.40671 -9.5234,-17.79297 -2.7135,-5.38625 -5.6341,-10.06332 -6.4922,-10.39258 z"
                   id="path101" />
                <path
                   style="fill:currentColor"
                   d="m 1626.4045,641.46486 c -0.8041,0.30858 -4.5069,6.31725 -8.2285,13.35157 -3.7216,7.0343 -8.0054,14.83244 -9.5215,17.33007 -2.9822,4.91293 -4.5238,10.33402 -3.4375,12.0918 1.092,1.76683 4.6174,-2.21902 14.084,-15.92578 4.7956,-6.94352 10.2197,-14.31288 12.0528,-16.37695 4.316,-4.86001 4.2962,-7.32122 -0.076,-9.40625 -1.875,-0.89413 -4.0689,-1.37303 -4.8731,-1.06446 z"
                   id="path99" />
                <path
                   style="fill:currentColor"
                   d="m 1625.5745,607.18776 c -1.0449,0 -10.7839,11.8088 -13.7207,16.63672 -1.7171,2.8227 -4.5267,5.29352 -8.8418,7.77539 -5.8553,3.36767 -6.3262,3.89689 -6.3262,7.11328 0,3.17678 0.2521,3.47461 2.9355,3.47461 1.6142,0 4.0856,-0.43788 5.4922,-0.97266 3.7834,-1.43845 11.4565,-8.87966 13.709,-13.29492 2.5616,-5.02106 7.6782,-20.73242 6.752,-20.73242 z"
                   id="path93" />
                <path
                   style="fill:currentColor"
                   d="m 2085.0803,594.74434 c -1.5828,0.009 -3.2905,0.18141 -5.2324,0.49414 -8.5944,1.38409 -13.6862,3.59418 -16.7969,7.29102 -2.562,3.04478 -2.6142,3.38232 -2.0937,13.64062 0.5749,11.33072 3.0236,24.75235 5.3262,29.20508 0.7854,1.51892 2.6584,3.46011 4.164,4.3125 4.8973,2.77263 15.8614,1.4848 24.7461,-2.90625 8.9518,-4.42422 18.8906,-13.23961 20.5313,-18.21094 3.0237,-9.16206 -2.9429,-19.32181 -16.8809,-28.74414 -5.3967,-3.64827 -9.0151,-5.10781 -13.7637,-5.08203 z"
                   id="path88" />
                <path
                   style="fill:currentColor"
                   d="m 1657.7112,594.82054 c -4.8472,0.0601 -8.4293,1.74832 -15.3731,6.39258 -10.4131,6.96472 -15.6523,14.73663 -15.6523,23.21484 0,8.36134 13.8995,20.72779 28.5,25.35743 5.4683,1.73393 14.008,1.70861 17.4141,-0.0527 1.5485,-0.80077 3.5154,-2.93827 4.3691,-4.75 2.3343,-4.95402 4.6595,-17.55784 5.3633,-29.06054 0.6143,-10.04082 0.5728,-10.32018 -2.0059,-13.38477 -3.183,-3.78283 -8.5615,-6.06327 -17.1758,-7.2832 -2.0685,-0.29295 -3.8237,-0.45363 -5.4394,-0.4336 z"
                   id="path89" />
                </g>
              </g>
              <g
                 
                 id="body-back"
                 inkscape:label="body-back"
                 inkscape:export-filename="body-svg-back.svg"
                 inkscape:export-xdpi="96"
                 inkscape:export-ydpi="96">
                <g class="svg-group"
                   id="head-back"
                   inkscape:label="head-back">
                  <path
                     style="fill:currentColor"
                     d="m 2493.4963,175.95705 c -7.1311,0 -8.4852,1.79718 -8.5937,11.40625 -0.152,13.45714 -5.3468,32.1411 -10.4473,37.57031 -1.2167,1.29512 -6.3871,4.66161 -11.4902,7.48047 -5.1031,2.81888 -9.2793,5.46591 -9.2793,5.88282 0,0.4169 1.2375,0.94469 2.75,1.17382 1.5125,0.22912 11.3262,0.48401 21.8086,0.56641 14.0288,0.11029 19.5166,-0.18442 20.7949,-1.11914 1.5557,-1.13754 1.8009,-4.34221 2.3457,-30.75 0.6952,-33.70008 1.0593,-32.21094 -7.8887,-32.21094 z"
                     id="path3" />
                  <path
                     style="fill:currentColor"
                     d="m 2522.7092,175.98435 c -2.4192,-0.10556 -5.0559,0.0718 -6.666,0.58593 -1.1781,0.37619 -2.3303,1.4561 -2.5605,2.40039 -0.2302,0.94428 -0.1658,14.46621 0.1425,30.04883 0.5251,26.53702 0.6839,28.42192 2.502,29.75 1.5293,1.11712 5.9845,1.39203 21,1.29883 10.4824,-0.0651 20.3665,-0.40258 21.9648,-0.75 2.7356,-0.59458 2.8013,-0.71838 1.1016,-2.12695 -0.9932,-0.82307 -5.6779,-3.54424 -10.4082,-6.04688 -8.4934,-4.4936 -8.6472,-4.64341 -12.3633,-12.00391 -4.3917,-8.69863 -6.5082,-17.63133 -7.3984,-31.20703 -0.4012,-6.11797 -1.1279,-10.15818 -1.9492,-10.83984 -0.7432,-0.61678 -2.946,-1.00382 -5.3653,-1.10937 z"
                     id="path4" />
                  <path
                     style="fill:currentColor"
                     d="m 2505.551,68.0508 c -5.9389,0.05613 -11.7586,0.706809 -16.955,2.046875 -18.458,4.759947 -24.0759,9.543036 -29.0762,24.755864 -2.9448,8.958941 -3.0427,26.495801 -0.2031,36.267571 1.8276,6.28941 1.9992,6.49871 7.7343,9.41797 6.208,3.15995 9.8813,7.29677 14.3379,16.14844 1.3846,2.75 3.4469,6.0125 4.5821,7.25 2.0063,2.1871 2.6133,2.25 21.7343,2.25 22.3994,0 20.4828,0.7157 25.9532,-9.70508 4.5466,-8.66118 9.2239,-13.76915 14.9941,-16.37695 2.717,-1.22792 5.1818,-2.86553 5.4785,-3.63867 1.9227,-5.01056 3.5547,-15.70181 3.5547,-23.29297 0,-14.038891 -2.887,-24.268501 -9.043,-32.041019 -6.3818,-8.057688 -25.275,-13.250434 -43.0918,-13.082031 z"
                     id="path1" />
                </g>
                <g class="svg-group"
                   id="back"
                   inkscape:label="back">
                  <path
                     style="fill:currentColor"
                     d="m 2493.7756,413.18764 c -0.9916,0 -12.2818,23.61615 -19.3613,40.5 -12.9345,30.84767 -21.0976,55.55861 -20.5391,62.17383 0.3043,3.60273 0.7304,3.9506 21.3106,17.35547 11.55,7.52306 21.2957,13.40624 21.6562,13.07422 3.1369,-2.8883 4.9679,-62.40431 2.8653,-93.10352 -1.6098,-23.50359 -4.0554,-40 -5.9317,-40 z"
                     id="path50" />
                  <path
                     style="fill:currentColor"
                     d="m 2520.7913,413.62123 c -2.5148,1.55423 -5.7165,33.35743 -6.6524,66.06641 -0.6609,23.09846 0.4382,48.46641 2.6504,61.16992 1.0855,6.23339 1.1765,6.376 3.2559,5.0293 1.1769,-0.76225 11.0281,-7.12628 21.8906,-14.14258 22.4819,-14.52152 21.203,-12.6316 17.6719,-26.11914 -5.9207,-22.61425 -35.945,-93.77854 -38.8164,-92.00391 z"
                     id="path51" />
                  <path
                     style="fill:currentColor"
                     d="m 2552.1213,337.41986 c -0.2764,0.27642 -4.727,9.78752 -9.8886,21.13672 -5.1617,11.34921 -11.2643,23.44646 -13.5625,26.88281 -3.6555,5.46586 -4.1091,6.74874 -3.625,10.24805 0.7353,5.3155 6.8664,23.44036 12.3418,36.48633 5.8838,14.019 25.2988,64.646 25.2988,65.96875 0,0.57515 0.4092,1.04492 0.9082,1.04492 1.3943,0 9.2927,-9.13779 14.4414,-16.70703 4.6186,-6.79008 4.6207,-6.79974 8.1406,-27.29297 1.9366,-11.27499 4.634,-25.22501 5.9942,-31 2.7932,-11.85821 3.9082,-18.33413 5.5078,-32 0.9562,-8.16951 1.8075,-10.90051 6.0742,-19.5 4.197,-8.45891 8.9152,-23.85234 7.6875,-25.08008 -0.1793,-0.17931 -2.5609,0.76796 -5.291,2.10352 -6.0613,2.96515 -17.8819,4.88184 -25.9629,4.21094 -8.7289,-0.72471 -16.7616,-4.60345 -19.9316,-9.625 -2.5034,-3.96563 -7.1311,-7.87878 -8.1329,-6.87696 z"
                     id="path29" />
                  <path
                     style="fill:currentColor"
                     d="m 2462.0002,337.18744 c -0.3482,0 -3.3725,2.8554 -6.7226,6.3457 -9.4531,9.84878 -18.0962,12.24556 -34.5918,9.59375 -3.575,-0.57471 -8.8625,-2.12179 -11.75,-3.4375 l -5.25,-2.39062 v 2.23437 c 0,4.78728 3.211,14.5472 7.5566,22.9668 4.238,8.21114 4.6806,9.81248 6.4805,23.5 1.0623,8.07862 3.2856,20.53751 4.9414,27.6875 1.6559,7.14999 4.5327,21.8388 6.3926,32.64062 3.7342,21.68754 3.6293,21.44172 15.3301,36.10938 5.3667,6.72756 6.985,7.87125 7.7812,5.5 2.116,-6.30179 20.4008,-53.68195 24.0235,-62.25 6.9448,-16.42562 13.6226,-36.45458 13.7207,-41.15234 0.069,-3.31103 -0.6813,-5.19961 -3.709,-9.32422 -2.0884,-2.84493 -7.4845,-13.35135 -11.9903,-23.34766 -9.2456,-20.51181 -11.307,-24.67578 -12.2129,-24.67578 z"
                     id="path28" />
                  <path
                     style="fill:currentColor"
                     d="m 2398.0999,300.70306 c -0.4887,0.2356 -0.9994,0.72326 -1.5762,1.43555 -2.1238,2.62272 -2.3596,7.85652 -0.7481,16.57422 1.4319,7.74568 4.8263,14.26202 9.7442,18.70508 4.952,4.47385 6.6993,5.41738 13.3633,7.21094 2.9164,0.78494 6.4785,1.45598 7.916,1.49218 4.6516,0.11713 13.1075,-1.88875 18.6406,-4.42187 7.7026,-3.52635 6.96,-5.42957 -3.0039,-7.70117 -8.5004,-1.93795 -13.3746,-4.14435 -21.8691,-9.90039 -7.7162,-5.2286 -14.5033,-12.23227 -17.4082,-17.96485 -2.3176,-4.57341 -3.5926,-6.13646 -5.0586,-5.42969 z"
                     id="path23" />
                  <path
                     style="fill:currentColor"
                     d="m 2616.5569,300.48627 c -1.4182,0.2317 -3.2445,2.50304 -5.3867,6.73047 -3.9207,7.73712 -18.5102,19.70081 -29.2422,23.97851 -2.6082,1.03959 -7.2172,2.37409 -10.2422,2.9668 -7.7643,1.52132 -8.9018,2.37152 -6.5938,4.92187 1.6781,1.85432 10.5859,5.32773 16.5938,6.47071 4.8763,0.92771 14.3987,-0.40403 19.459,-2.72071 7.1605,-3.27815 12.0285,-7.86917 15,-14.15039 4.0323,-8.52351 5.0024,-24.43508 1.6914,-27.74609 -0.3791,-0.37913 -0.8066,-0.52841 -1.2793,-0.45117 z"
                     id="path22" />
                  <path
                     style="fill:currentColor"
                     d="m 2438.9592,267.67377 c -1.094,-0.23175 -2.3745,0.0313 -3.9843,0.54687 -5.7585,1.84412 -33.8933,15.51677 -34.7364,16.88086 -0.4183,0.67687 1.6635,6.10219 4.7832,12.46875 4.5045,9.1925 6.6053,12.2727 11.3887,16.69531 5.8905,5.44624 24.3616,15.89958 32.7148,18.51563 2.2332,0.69938 4.5901,1.30304 5.2383,1.33984 1.9052,0.10814 4.4331,-3.0048 3.8887,-4.78906 -2.9075,-9.52925 -7.9332,-28.32888 -10.5977,-39.64453 -3.8069,-16.16784 -5.413,-21.31843 -8.6953,-22.01367 z"
                     id="path21" />
                  <path
                     style="fill:currentColor"
                     d="m 2552.8635,245.81247 c -7.2424,0.0256 -14.5832,0.45611 -18.416,1.2793 -8.3498,1.79336 -17.1746,7.95011 -19.1816,13.38281 -5.2603,14.23853 -5.6326,55.4627 -1.041,115.21289 0.803,10.44999 1.4608,20.2375 1.4609,21.75 3e-4,4.31572 1.6437,3.2217 2.9492,-1.96289 1.5891,-6.31063 6.4858,-16.73857 13.2813,-28.28711 9.6764,-16.44452 15.6864,-29.93463 21.3847,-48 3.0359,-9.62499 7.7828,-24.70001 10.5508,-33.5 5.5541,-17.65807 9.6927,-28.08741 12.9668,-32.68555 2.5744,-3.61544 2.0399,-4.14029 -6.1328,-6.03711 -3.4361,-0.79751 -10.5798,-1.17793 -17.8223,-1.15234 z"
                     id="path13" />
                  <path
                     style="fill:currentColor"
                     d="m 2576.4085,266.80853 -2.2793,2.65039 c -2.4187,2.81199 -3.5662,6.38361 -7.9473,24.72852 -1.5105,6.32499 -4.2651,16.76676 -6.1211,23.20312 -3.7785,13.10318 -3.8848,13.88308 -2.125,15.65626 2.0979,2.11378 7.4845,0.46542 21.6953,-6.63868 17.6409,-8.81884 22.9705,-13.83375 30.0156,-28.24023 2.7711,-5.66665 5.0391,-11.09055 5.0391,-12.05274 0,-1.25751 -4.0069,-3.71127 -14.25,-8.72851 -7.8375,-3.83894 -16.4497,-7.79022 -19.1387,-8.7793 z"
                     id="path20" />
                  <path
                     style="fill:currentColor"
                     d="m 2461.6858,245.74997 c -10.4023,-0.0482 -14.9095,0.36176 -19.6445,1.78906 l -6.1465,1.85352 2.8789,4.64648 c 4.0142,6.48312 9.6432,21.90237 17.3965,47.64844 10.8092,35.89408 13.8499,43.21143 28.0488,67.5 4.1201,7.04787 8.742,16.63745 10.5957,21.98633 3.1796,9.17507 3.311,9.37214 3.998,6 2.1412,-10.50857 4.3044,-53.88286 4.3379,-86.98633 0.048,-47.02544 -0.7924,-51.22517 -11.6796,-58.43164 -6.9728,-4.61539 -13.4955,-5.93036 -29.7852,-6.00586 z"
                     id="path12" />
                </g>
                <g class="svg-group"
                   id="shoulders-back"
                   inkscape:label="shoulders-back">
                  <path
                     style="fill:currentColor"
                     d="m 2400.8987,257.43939 c -8.9868,-1.48324 -18.2563,1.81264 -27.8828,9.90235 -6.2609,5.26132 -8.4597,7.99194 -12.0664,14.98632 -2.7444,5.32186 -2.7663,5.52182 -3.0957,28.10938 -0.2822,19.34158 -0.1154,22.75 1.1152,22.75 3.3157,0 15.6867,-7.35002 21.9961,-13.06836 7.605,-6.89263 9.7207,-10.22873 9.7207,-15.33203 0,-6.02224 2.0943,-13.86739 5.3535,-20.04883 2.5907,-4.9135 4.6664,-7.07616 11.9199,-12.41601 4.8305,-3.5561 8.6319,-6.91869 8.4473,-7.47266 -0.1847,-0.55397 -3.1609,-2.50372 -6.6133,-4.33399 -2.9352,-1.55608 -5.8989,-2.58175 -8.8945,-3.07617 z"
                     id="path17" />
                  <path
                     style="fill:currentColor"
                     d="m 2615.1682,257.26166 c -5.4277,0.63363 -10.7116,2.86186 -15.3613,6.62695 l -2.3574,1.91016 6.375,4.15429 c 13.9858,9.11209 18.5471,16.88443 20.3828,34.73438 0.6105,5.93634 0.7046,6.08487 8.8086,14 5.4214,5.29507 10.3843,9.0824 14.6797,11.20117 3.5693,1.76062 7.0527,3.2231 7.7402,3.25 0.9514,0.0372 1.2826,-4.3104 1.3848,-18.20117 0.1854,-25.19418 0.064,-26.44247 -3.2422,-33.42578 -3.5578,-7.51482 -13.2969,-16.86984 -22.1836,-21.31055 -5.2272,-2.61207 -10.7989,-3.57308 -16.2266,-2.93945 z"
                     id="path16" />
                </g>
                <g class="svg-group"
                   id="triceps"
                   inkscape:label="triceps">
                  <path
                     style="fill:currentColor"
                     d="m 2352.9983,372.64057 c -0.9397,0.0783 -1.6024,2.67503 -2.8047,7.85938 -5.4216,23.37768 -7.298,49.46549 -4.1074,57.10156 0.8242,1.97253 2.1255,3.58594 2.8926,3.58594 1.622,0 11.8592,-27.27276 13.8437,-36.88086 1.5557,-7.53205 0.6426,-11.69241 -5.3594,-24.41211 -2.3083,-4.89189 -3.5251,-7.33219 -4.4648,-7.25391 z"
                     id="path41" />
                  <path
                     style="fill:currentColor"
                     d="m 2397.3557,360.52339 c -0.3636,-0.36359 -1.6762,-0.18981 -2.916,0.38672 -3.7488,1.74322 -22.3857,19.9739 -24.0156,23.49218 -0.837,1.80671 -1.8304,7.33516 -2.209,12.28516 -0.3786,4.95 -1.7948,14.62501 -3.1465,21.5 -2.8146,14.3153 -3.9968,27.94153 -2.916,33.60352 l 0.7422,3.89648 4.9785,-5.5 c 6.5162,-7.19965 7.648,-9.53326 9.3672,-19.3125 0.7917,-4.50357 2.2709,-9.3125 3.2871,-10.6875 6.8571,-9.27797 8.6534,-12.64446 10.7656,-20.16797 1.2867,-4.58282 3.526,-11.70703 4.9766,-15.83203 2.2271,-6.33344 2.5698,-8.70624 2.1933,-15.25195 -0.2452,-4.26326 -0.7438,-8.04853 -1.1074,-8.41211 z"
                     id="path35" />
                  <path
                     style="fill:currentColor"
                     d="m 2661.5354,372.52925 c -0.848,0.55788 -1.9279,2.92735 -3.7187,6.6582 -2.244,4.675 -4.76,11.15881 -5.5918,14.4082 -1.8211,7.11443 -1.0967,10.59125 6.5761,31.5918 2.7127,7.42499 5.1322,14.0625 5.377,14.75 0.767,2.15435 3.1304,1.36643 4.5,-1.5 3.3228,-6.95461 2.2398,-28.30938 -2.6152,-51.5293 -2.3432,-11.20689 -3.114,-15.3087 -4.5274,-14.3789 z"
                     id="path40" />
                  <path
                     style="fill:currentColor"
                     d="m 2388.7249,320.18744 c -2.1218,0 -14.6649,11.26605 -20.5782,18.48242 -6.3727,7.77703 -7.9574,12.70531 -7.8867,24.51758 0.035,5.77499 0.6296,12.1875 1.3223,14.25 1.8725,5.57576 3.9112,4.96319 10.0273,-3.01562 1.7988,-2.34659 7.7273,-7.5012 13.1739,-11.45313 5.4465,-3.95192 9.9114,-7.88093 9.9218,-8.73242 0.04,-3.28496 -5.3636,-34.04883 -5.9804,-34.04883 z"
                     id="path25" />
                  <path
                     style="fill:currentColor"
                     d="m 2619.1174,360.18745 c -3.7397,0 -3.4279,15.98775 0.5293,27.14844 1.6287,4.59342 3.8903,11.58744 5.0254,15.54297 1.3432,4.68069 3.3965,8.87848 5.8809,12.02148 5.3489,6.76678 5.9357,8.10386 7.1933,16.41992 1.2335,8.15683 2.9381,11.67389 9.1797,18.91992 2.8727,3.33504 4.5414,4.56693 5.2383,3.86915 1.9387,-1.94098 0.9353,-19.83121 -1.8867,-33.64454 -1.4858,-7.27249 -3.0793,-17.94213 -3.541,-23.71093 -0.6456,-8.06582 -1.3522,-11.31825 -3.0567,-14.07618 -2.478,-4.00955 -22.6617,-22.49023 -24.5625,-22.49023 z"
                     id="path34" />
                  <path
                     style="fill:currentColor"
                     d="m 2625.6858,319.4433 c 0,0.42654 -4.6506,28.57225 -5.4551,33.01367 -0.4602,2.54016 0.3389,3.3871 9.6699,10.24414 5.7028,4.19071 12.0694,9.89346 14.4922,12.98047 7.5143,9.57391 9.7682,6.92617 9.7832,-11.49414 0.01,-11.37167 -0.2248,-12.99869 -2.58,-18.01953 -2.9846,-6.36248 -11.0129,-15.40918 -19.8047,-22.31641 -3.3583,-2.63836 -6.1055,-4.62174 -6.1055,-4.4082 z"
                     id="path24" />
                </g>
                <g class="svg-group"
                   id="forearm-back"
                   inkscape:label="forearm-back">
                  <path
                     style="fill:currentColor"
                     d="m 2317.3967,465.52554 c -0.7691,-0.35091 -1.2502,3.01901 -4.164,20.16211 -10.1396,59.6556 -12.3629,70.9014 -17.6446,89.22852 -1.6211,5.62542 -3.2355,11.02543 -3.5859,12 -1.5048,4.18481 4.734,-3.30057 7.9961,-9.59375 7.9126,-15.26485 12.732,-37.71075 17.0996,-79.63477 2.7075,-25.98921 2.823,-28.82776 1.2637,-30.94336 -0.4213,-0.57162 -0.7085,-1.10178 -0.9649,-1.21875 z"
                     id="path69" />
                  <path
                     style="fill:currentColor"
                     d="m 2326.3323,454.68767 -0.7715,5.5 c -0.4244,3.025 -1.9384,14.50001 -3.3652,25.5 -5.6661,43.68272 -13.6821,91.06931 -16.9922,100.45117 -0.7857,2.22676 -1.0881,4.04883 -0.6719,4.04883 2.328,0 17.2139,-28.99267 25.5703,-49.80078 6.9084,-17.20246 7.9353,-22.55345 7.2363,-37.69922 -0.865,-18.74317 -3.3217,-31.14105 -8.3632,-42.20117 z"
                     id="path62" />
                  <path
                     style="fill:currentColor"
                     d="m 2338.8596,441.3693 c -0.1351,0.18448 -0.03,0.7056 0.3184,1.56836 0.3882,0.9625 0.8876,9.17501 1.1113,18.25 0.44,17.84552 0.7517,20.29545 3.0274,23.8125 0.8228,1.27165 2.0311,2.13534 2.6835,1.91992 2.2628,-0.74706 6.8244,-11.40775 7.9258,-18.52344 1.3498,-8.72032 0.9894,-9.66464 -7.4863,-19.6582 -4.6128,-5.43895 -7.1747,-7.92259 -7.5801,-7.36914 z"
                     id="path57" />
                  <path
                     style="fill:currentColor"
                     d="m 2365.6702,472.18765 c -3.1367,0 -4.7875,0.71074 -7.5528,3.25 -3.2356,2.97118 -4.5915,6.33849 -15.8007,39.25 -12.3508,36.26293 -17.5799,49.71933 -24.6758,63.5 -3.7364,7.25609 -3.7646,7.38618 -0.875,4 6.807,-7.9768 52.9199,-102.78969 52.9199,-108.80859 0,-0.72511 -1.5741,-1.19141 -4.0156,-1.19141 z"
                     id="path71" />
                  <path
                     style="fill:currentColor"
                     d="m 2688.51,454.73257 -2.9941,6.97852 c -4.696,10.94215 -6.8191,22.13088 -7.5039,39.54687 -0.7081,18.00998 -0.2112,20.95277 6.4023,37.92969 4.9673,12.75132 17.5184,38.82781 22.3106,46.35156 1.6996,2.66837 3.301,4.64044 3.5586,4.38282 0.2577,-0.25762 -0.4174,-3.79082 -1.502,-7.85157 -4.2921,-16.06934 -9.4436,-47.00455 -15.5566,-93.41406 -1.9538,-14.83303 -3.8153,-28.53283 -4.1348,-30.44531 z"
                     id="path63" />
                  <path
                     style="fill:currentColor"
                     d="m 2697.9846,465.21695 c -0.2239,-0.25907 -0.8605,0.19093 -1.414,1 -1.7864,2.61168 0.4876,29.91923 5.2011,62.4707 4.0473,27.95037 9.159,44.2881 17.2793,55.21875 1.7239,2.32049 3.4518,4.233 3.8399,4.25 0.3881,0.017 0.028,-1.88125 -0.7989,-4.21875 -5.2979,-14.96783 -10.6622,-40.21124 -18.4374,-86.75 -2.8945,-17.32498 -5.4461,-31.71163 -5.67,-31.9707 z"
                     id="path68" />
                  <path
                     style="fill:currentColor"
                     d="m 2646.3108,472.02359 c -0.9865,-0.0178 -1.625,0.11448 -1.625,0.45508 0,5.0552 42.6915,93.70794 51.7676,107.5 1.9152,2.91044 3.6127,5.16045 3.7715,5 0.1588,-0.16045 -1.6976,-4.34102 -4.125,-9.29102 -7.4971,-15.28844 -11.161,-24.81441 -23.0352,-59.89062 -12.1909,-36.01181 -12.9994,-38.05197 -16.2656,-41.00782 -1.4305,-1.29459 -7.5287,-2.7121 -10.4883,-2.76562 z"
                     id="path70" />
                  <path
                     style="fill:currentColor"
                     d="m 2675.5276,440.965 -5.1699,5.78125 c -8.9131,9.96495 -9.6719,11.3018 -9.6719,17.04688 0,6.19844 2.8619,15.98636 5.9355,20.30273 2.7704,3.89065 3.6083,3.87372 5.67,-0.11328 1.7487,-3.3816 2.0797,-6.83783 2.7929,-29.15625 z"
                     id="path56" />
                </g>
                <g class="svg-group"
                   id="butt"
                   inkscape:label="butt">
                  <path
                     style="fill:currentColor"
                     d="m 2442.5295,529.51966 c -6.2709,0.74269 -8.857,2.37343 -12.7578,8.04297 -6.3478,9.2262 -14.0859,27.78346 -14.0859,33.7793 0,2.20402 0.433,1.94074 20.4648,-12.45313 13.6247,-9.78996 16.2897,-11.16999 30.3086,-15.68164 l 11.2735,-3.62695 -2.2735,-2.11524 c -4.4738,-4.16148 -24.3622,-8.96 -32.9297,-7.94531 z"
                     id="path78" />
                  <path
                     style="fill:currentColor"
                     d="m 2484.2639,544.34202 c -3.8044,-0.0385 -9.9638,1.77106 -19.3554,5.62109 -22.4676,9.21041 -43.2816,24.53561 -48.9219,36.02149 -2.4154,4.91858 -2.7959,6.87264 -2.7637,14.20312 0.042,9.54081 2.6131,19.38845 7.6934,29.46484 8.8545,17.56219 23.9974,33.53516 31.791,33.53516 1.446,0 5.9689,1.15844 10.0527,2.57422 4.0838,1.41577 9.4508,2.93594 11.9258,3.3789 5.6147,1.00492 10.343,0.38797 15.5,-2.02539 5.755,-2.69322 6.611,-4.69688 6.957,-16.28711 0.1932,-6.46964 1.2443,-14.12253 2.9043,-21.14062 3.4612,-14.63297 4.6496,-25.27176 4.5801,-40.97461 -0.078,-17.72898 -1.7177,-23.71247 -9.4355,-34.43164 -3.2706,-4.54247 -6.8157,-8.72305 -7.877,-9.29102 -0.7774,-0.41604 -1.7826,-0.63559 -3.0508,-0.64843 z"
                     id="path80" />
                  <path
                     style="fill:currentColor"
                     d="m 2529.7366,544.42012 c -3.1789,0.51487 -5.3856,3.16743 -11.0352,11.33985 -6.9261,10.01899 -8.4556,16.21401 -8.3711,33.92773 0.073,15.23741 1.336,26.31594 4.502,39.5 1.1226,4.675 2.3541,13.96412 2.7363,20.64258 0.4574,7.99215 1.168,12.71507 2.082,13.8164 1.8811,2.26656 6.787,4.75152 11.0352,5.58985 4.9404,0.9749 10.1419,0.20241 20.5,-3.04492 4.95,-1.55186 10.4954,-3.08328 12.3223,-3.40235 11.565,-2.0198 31.6991,-29.11981 36.7734,-49.49414 2.116,-8.4959 1.5842,-22.09546 -1.0801,-27.60742 -4.0021,-8.2798 -21.1266,-22.18984 -37.5664,-30.51562 -9.779,-4.95249 -23.3058,-10.07016 -28.2324,-10.67969 -1.4391,-0.17805 -2.6064,-0.24389 -3.666,-0.0723 z"
                     id="path81" />
                  <path
                     style="fill:currentColor"
                     d="m 2566.2542,529.52366 c -9.3554,0.84691 -21.8696,4.20408 -25.7657,7.48242 l -3.039,2.55664 12.5351,4.11523 c 13.2458,4.34851 15.5823,5.67216 36.5313,20.67774 6.7817,4.85772 12.5392,8.83203 12.7949,8.83203 0.9188,0 -0.9411,-7.65158 -3.7559,-15.44336 -5.6962,-15.76848 -14.0644,-26.7523 -21.4336,-28.13476 -1.9805,-0.37155 -4.7487,-0.36825 -7.8671,-0.0859 z"
                     id="path79" />
                </g>
                <g class="svg-group"
                   id="legs-upper-back"
                   inkscape:label="legs-upper-back">
                  <path
                     style="fill:currentColor"
                     d="m 2535.3225,741.87913 c -0.2075,-0.30104 -0.4336,0.38325 -0.8476,1.80859 -2.1559,7.42075 -1.1923,18.54753 3.0742,35.5 3.4653,13.76894 4.397,19.67004 5.6289,35.65039 1.4799,19.19854 3.6765,36.36924 5.6094,43.84961 0.5684,2.2 1.4697,5.6875 2.0039,7.75 v 0 c 0.5341,2.0625 1.2275,3.75 1.541,3.75 0.3106,0 0.3118,-1.01718 0,-2.25977 -1.12,-4.46237 -2.7538,-25.64141 -3.6426,-47.24023 -0.7724,-18.77032 -1.3345,-23.83504 -3.8379,-34.5 -6.3622,-27.10457 -8.1166,-35.1192 -8.7988,-40.20508 -0.3374,-2.5153 -0.5268,-3.80248 -0.7344,-4.10351 z"
                     id="path127" />
                  <path
                     style="fill:currentColor"
                     d="m 2480.1057,739.68772 -0.789,5 c -0.4344,2.75 -3.0187,14.67501 -5.7442,26.5 -6.6828,28.9948 -7.8759,37.08212 -7.8906,53.5 -0.012,12.75618 -1.1267,30.82458 -2.5293,41 -0.8603,6.24145 1.0488,2.11972 2.9609,-6.39258 2.5508,-11.35528 4.4453,-26.33898 5.5723,-44.09375 0.8444,-13.30173 1.815,-19.4833 5.5117,-35.06445 4.4985,-18.96029 5.0994,-24.85261 3.6113,-35.44922 z"
                     id="path126" />
                  <path
                     style="fill:currentColor"
                     d="m 2460.6448,682.18772 c -1.1444,0 -3.9739,8.38464 -4.9356,14.62695 -1.0134,6.57875 -3.4678,33.40066 -5.0683,55.37305 -0.5809,7.97499 -1.3233,28.90002 -1.6485,46.5 -0.5855,31.69384 0.1931,46.8957 2.7793,54.31445 2.4004,6.88584 3.261,2.9956 8.92,-40.31445 4.5138,-34.54636 7.4113,-50.20222 12.0332,-65 2.8443,-9.10683 3.084,-10.89317 2.6718,-20 -0.6044,-13.35437 -3.8708,-25.99624 -9.4922,-36.75 -2.5156,-4.8125 -4.8819,-8.75 -5.2597,-8.75 z"
                     id="path120" />
                  <path
                     style="fill:currentColor"
                     d="m 2489.7346,675.24044 c -2.7739,-0.0434 -6.4633,0.35077 -11.2988,0.95508 -5.3625,0.67016 -9.75,1.42216 -9.75,1.67188 0,0.24972 1.0763,1.88592 2.3906,3.63672 3.9638,5.27991 8.4431,15.07866 11.1485,24.38671 2.7495,9.46016 3.5291,20.72699 2.2343,32.29688 -0.557,4.97729 -0.4782,5.91434 0.336,4 2.4583,-5.78009 9.9128,-37.5455 11.4355,-48.72852 1.9109,-14.03404 1.8257,-18.08857 -6.4961,-18.21875 z"
                     id="path118" />
                  <path
                     style="fill:currentColor"
                     d="m 2527.221,675.26194 c -8.1523,-0.33361 -9.5352,1.68989 -9.5352,7.89844 0,9.49499 4.0943,30.13711 10.1777,51.30664 1.7036,5.92827 3.2834,10.59361 3.5098,10.36718 0.2264,-0.22642 -0.1215,-3.47525 -0.7734,-7.21875 -3.0351,-17.4285 2.322,-40.20987 13.1816,-56.05273 l 2.8281,-4.12305 -8.7793,-1.12695 c -4.421,-0.56697 -7.8919,-0.93958 -10.6093,-1.05078 z"
                     id="path119" />
                  <path
                     style="fill:currentColor"
                     d="m 2554.2737,682.18772 c -0.2657,0 -2.4985,3.7125 -4.9629,8.25 -4.6193,8.50522 -7.6282,18.50846 -9.6152,31.97656 -1.355,9.18373 -0.7763,14.2274 3.0175,26.32617 4.0168,12.80973 7.3292,31.27096 11.9747,66.73047 2.2181,16.93045 4.5117,33.01797 5.0976,35.75 0.5859,2.73204 1.4238,4.9668 1.8613,4.9668 1.5468,0 3.0953,-8.68473 4.2559,-23.86133 2.4806,-32.44011 -3.903,-133.24137 -9.2246,-145.65625 -1.0566,-2.46482 -2.1386,-4.48242 -2.4043,-4.48242 z"
                     id="path121" />
                  <path
                     style="fill:currentColor"
                     d="m 2583.5803,655.47873 c -0.661,0.21231 -1.4151,0.77109 -2.4609,1.74218 -3.9069,3.62767 -10.2409,13.26631 -13.6289,20.73828 l -2.9688,6.54688 1.045,17.5918 c 0.5751,9.67485 1.3092,25.46485 1.6308,35.08984 0.901,26.95852 2.1683,37.6889 6.416,54.33789 6.9407,27.20439 18.0947,56.86252 25.0684,66.65625 2.2541,3.16556 3.2297,3.8468 2.5137,1.75586 -0.2354,-0.6875 -1.3638,-8.90001 -2.5059,-18.25 -1.142,-9.34999 -2.7282,-20.6 -3.5254,-25 -2.8462,-15.70861 -3.6374,-31.80436 -4.4473,-90.5 -0.8536,-61.8605 -1.3033,-67.90882 -5.2363,-70.36719 -0.6712,-0.4196 -1.2393,-0.55411 -1.9004,-0.34179 z"
                     id="path115" />
                  <path
                     style="fill:currentColor"
                     d="m 2430.594,655.18759 c -5.0703,0 -5.9306,9.90959 -6.9492,80 -0.6641,45.69643 -1.2993,65.05415 -2.3633,72 -1.2046,7.86371 -4.7742,33.33751 -7.0762,50.5 l -0.5371,4 1.9961,-2.5 c 8.7232,-10.92525 26.5649,-63.0553 29.9473,-87.5 0.5327,-3.85 1.4583,-19.37502 2.0566,-34.5 0.5984,-15.12498 1.5237,-32.76546 2.0567,-39.20117 0.9002,-10.87193 0.8171,-12.11233 -1.1836,-17.5 -3.8619,-10.39926 -14.432,-25.29883 -17.9473,-25.29883 z"
                     id="path111" />
                  <path
                     style="fill:currentColor"
                     d="m 2401.6428,637.71319 c -1.2675,0.78337 -1.2329,41.25413 0.053,62.47461 2.7479,45.35485 6.8655,76.01938 12.0332,89.61133 1.8467,4.85737 2.1508,1.68207 0.9375,-9.78321 -1.2522,-11.83228 -1.0117,-18.86836 1.6699,-48.82812 2.6693,-29.82262 0.4023,-55.21066 -6.8301,-76.5 -4.7203,-13.89459 -6.5289,-17.79927 -7.8633,-16.97461 z"
                     id="path96" />
                  <path
                     style="fill:currentColor"
                     d="m 2612.6253,637.88311 c -1.3346,0.80997 -3.3073,5.50799 -6.8008,15.80469 -7.7818,22.93541 -9.6516,46.21905 -6.6309,82.55859 1.3068,15.72139 1.6153,26.082 1.1563,38.83789 -0.3439,9.56859 -0.366,17.1394 -0.049,16.82227 1.5153,-1.51526 5.6129,-18.60672 7.3633,-30.71094 5.0379,-34.83728 9.1788,-118.05343 6.1153,-122.89062 -0.3361,-0.53061 -0.7095,-0.69187 -1.1543,-0.42188 z"
                     id="path97" />
                </g>
                <g class="svg-group"
                   id="legs-lower-back"
                   inkscape:label="legs-lower-back">
                  <path
                     style="fill:currentColor"
                     d="m 2425.6155,1152.3975 c -11.3837,-0.2028 -22.4671,-0.01 -23.3965,0.7637 -2.2821,1.894 -2.0032,2.326 3.7168,5.7265 5.5152,3.2786 13.5917,5.3798 27.75,7.2188 4.675,0.6072 9.625,1.2627 11,1.457 10.23,1.4459 12.7838,-0.9584 9.8769,-9.2969 -0.6798,-1.9503 -2.159,-3.6217 -3.75,-4.2383 -2.1307,-0.8259 -13.8136,-1.428 -25.1972,-1.6308 z"
                     id="path157" />
                  <path
                     style="fill:currentColor"
                     d="m 2609.5823,1152.2666 c -3.3419,-0.145 -9.01,-0.056 -18.8887,0.1856 -12.3798,0.3026 -23.6972,1.0131 -25.1504,1.5781 -1.8302,0.7115 -3.1931,2.4722 -4.4375,5.7305 l -1.7969,4.7031 2.3731,1.9219 c 2.733,2.2131 7.141,1.9972 26.9727,-1.3203 15.4403,-2.5829 18.0201,-3.3615 22.9511,-6.9336 3.6495,-2.6436 4.0469,-3.2791 2.9121,-4.6465 -0.5769,-0.6952 -1.5936,-1.0738 -4.9355,-1.2188 z"
                     id="path156" />
                  <path
                     style="fill:currentColor"
                     d="m 2423.4358,1100.1881 c -0.8076,0 -0.1368,33.8441 0.8203,41.375 0.2709,2.1314 0.9443,4.7189 1.4961,5.75 0.8863,1.6561 2.1954,1.8634 11.2188,1.7754 13.5612,-0.1323 14.9075,-0.5757 16.5546,-5.4434 1.7308,-5.1149 2.9558,-38.0663 1.3789,-37.0918 -0.5962,0.3685 -1.5747,3.2495 -2.1738,6.4024 -1.9216,10.1131 -3.0357,13.0815 -5.7031,15.1797 -2.8097,2.2101 -9.1393,2.7657 -12.2891,1.08 -2.3077,-1.2351 -2.7708,-2.4887 -5.1172,-13.8652 -1.8298,-8.8723 -4.396,-15.1621 -6.1855,-15.1621 z"
                     id="path150" />
                  <path
                     style="fill:currentColor"
                     d="m 2591.7835,1100.1881 c -2.0314,0 -4.9265,6.9662 -6.6329,15.9609 -2.1418,11.2894 -4.1669,14.0391 -10.3418,14.0391 -7.4934,0 -10.3337,-4.0807 -12.5761,-18.0762 -0.3151,-1.9669 -1.2269,-4.4419 -2.0274,-5.5 -1.3307,-1.7587 -1.4531,-1.4521 -1.4531,3.5762 0.01,10.0855 1.7879,31.4844 2.8535,34.2871 0.5785,1.5218 2.0709,3.1754 3.3164,3.6758 1.2455,0.5003 6.8655,0.9396 12.4903,0.9746 12.6862,0.079 12.967,-0.2083 13.7187,-13.957 1.3333,-24.3834 1.5313,-34.9805 0.6524,-34.9805 z"
                     id="path151" />
                  <path
                     style="fill:currentColor"
                     d="m 2568.0393,1011.5142 c -3.6595,-0.8097 -9.5035,1.0162 -10.7324,4.2187 -2.0351,5.3033 0.1474,35.0016 4.0019,54.4551 1.98,9.9927 4.3586,25.9305 7.5196,50.4004 0.4635,3.588 1.8004,-17.2118 2.8867,-44.9004 1.3063,-33.2961 0.8982,-58.9 -0.9961,-62.4395 -0.4828,-0.9022 -1.4598,-1.4644 -2.6797,-1.7343 z"
                     id="path145" />
                  <path
                     style="fill:currentColor"
                     d="m 2589.7327,1009.094 c -2.4107,-0.028 -4.8123,0.7674 -6.4414,2.3965 -2.6923,2.6923 -2.9984,4.8314 -5.0508,35.1973 -2.3616,34.9409 -2.8626,55.1686 -1.5938,64.3164 0.6343,4.5738 1.4118,8.9908 1.7286,9.8164 0.3168,0.8257 0.9029,1.1331 1.3027,0.6836 1.0517,-1.1822 4.5162,-22.864 8.5195,-53.3164 3.9783,-30.2631 4.7453,-34.4665 8.0762,-44.2598 2.9856,-8.7777 2.9839,-9.2581 -0.043,-12.2851 -1.6678,-1.6678 -4.0874,-2.5207 -6.498,-2.5489 z"
                     id="path142" />
                  <path
                     style="fill:currentColor"
                     d="m 2425.3264,1009.188 c -4.6075,0 -8.6406,3.0418 -8.6406,6.5176 0,1.193 0.8916,4.7591 1.9805,7.9238 2.9658,8.6203 4.54,17.3561 8.4804,47.0586 1.9701,14.85 4.5396,32.5125 5.711,39.25 1.1713,6.7375 2.4664,12.25 2.8769,12.25 1.7095,0 3.2056,-14.4151 3.0625,-29.5 -0.1642,-17.3192 -2.5535,-59.6217 -4.0332,-71.4062 -1.1438,-9.1097 -3.4721,-12.0938 -9.4375,-12.0938 z"
                     id="path143" />
                  <path
                     style="fill:currentColor"
                     d="m 2444.0784,843.28733 c -0.3214,-0.42767 -0.4449,0.11106 -0.5352,1.40039 -0.1155,1.65 -0.3742,31.80004 -0.5742,67 -0.2,35.19996 -0.4425,68.09286 -0.5391,73.0957 -0.1384,7.1701 0.1918,9.658 1.5625,11.75 1.1269,1.7197 2.6341,2.6543 4.2813,2.6543 6.0893,0 18.655,-18.44492 21.8769,-32.11328 2.6723,-11.33634 1.7325,-32.83545 -2.5722,-58.80078 -2.7334,-16.48729 -4.7844,-22.85503 -12.9043,-40.08594 -3.7582,-7.97499 -7.7526,-17.2 -8.877,-20.5 -0.8786,-2.57866 -1.3973,-3.97272 -1.7187,-4.40039 z"
                     id="path137" />
                  <path
                     style="fill:currentColor"
                     d="m 2577.9046,843.03342 c -0.1981,0.59426 0.1563,9.75923 0.789,20.36719 0.6327,10.60795 1.393,43.36214 1.6895,72.78711 0.5008,49.7025 0.6726,53.7633 2.414,57.1973 1.0309,2.033 2.6645,4.1559 3.6309,4.7187 3.1318,1.8238 9.0019,1.2757 11.1621,-1.043 2.0812,-2.2338 5.9749,-17.07009 8.2344,-31.373 1.7196,-10.88395 1.7431,-54.49617 0.035,-65 -1.9578,-12.03953 -5.0732,-23.19587 -8.6562,-31 -3.3865,-7.37622 -18.6828,-28.50261 -19.2988,-26.6543 z"
                     id="path136" />
                  <path
                     style="fill:currentColor"
                     d="m 2437.3147,841.48462 c -0.4419,-0.44196 -15.572,20.34837 -18.0586,24.81445 -3.3006,5.92804 -7.161,18.07634 -9.2832,29.21094 -2.2185,11.6398 -2.5545,60.70847 -0.498,72.67773 2.2434,13.05753 5.2135,24.4765 7.2304,27.793 1.7124,2.8157 2.4807,3.207 6.2793,3.207 3.4385,0 4.8487,-0.565 6.8672,-2.75 1.3973,-1.5125 2.8744,-3.65 3.2832,-4.75 0.4089,-1.1 0.9246,-23.15003 1.1445,-49 0.2199,-25.84997 1.0463,-59.14109 1.8379,-73.98047 0.7917,-14.83936 1.3305,-27.08945 1.1973,-27.22265 z"
                     id="path132" />
                  <path
                     style="fill:currentColor"
                     d="m 2449.385,1011.188 c -5.9472,0 -6.1606,0.8433 -6.5566,25.9023 -0.3431,21.7106 1.2344,70.7447 2.5761,80.0977 0.5391,3.7573 1.0252,1.5293 2.9532,-13.5 1.27,-9.9 3.6514,-24.975 5.291,-33.5 2.9099,-15.1304 5.0371,-35.0335 5.0371,-47.1309 0,-5.3231 -0.3402,-6.3617 -2.9238,-8.9453 -2.1026,-2.1026 -3.8922,-2.9238 -6.377,-2.9238 z"
                     id="path144" />
                  <path
                     style="fill:currentColor"
                     d="m 2571.4006,842.11743 -3.7285,9.28515 c -2.0505,5.10661 -6.0264,14.07756 -8.834,19.93555 -2.8075,5.85798 -6.1895,14.408 -7.5175,19 -6.822,23.58915 -10.0469,63.43935 -6.2891,77.72461 2.3683,9.0033 8.2623,19.7183 14.2773,25.9531 4.2115,4.3653 5.6555,5.2686 7.9864,5 5.9199,-0.6821 6.2135,-4.2863 4.2304,-51.8281 -0.9362,-22.45444 -0.9218,-33.80312 0.066,-53.5 0.7378,-14.70654 0.9564,-30.47025 0.5313,-38.28516 z"
                     id="path133" />
                </g>
                <g class="svg-group"
                   id="hands-fingers-back"
                   inkscape:label="hands-fingers">
                <path
                   style="fill:currentColor"
                   d="m 2706.0667,653.18761 c -0.9932,0 1.0766,29.97951 2.2734,32.92773 2.6452,6.51609 3.8167,2.35804 4.1816,-14.84765 l 0.336,-15.82422 -3.2364,-1.12891 c -1.7791,-0.62021 -3.3779,-1.12695 -3.5546,-1.12695 z"
                   id="path107" />
                <path
                   style="fill:currentColor"
                   d="m 2725.8557,655.20319 c -5.4721,0.0314 -5.4739,0.0861 -0.7871,23.41211 2.6517,13.19747 4.9227,22.15168 5.75,22.67579 4.7019,2.97872 4.916,-0.87529 1.3438,-24.15821 -3.5715,-23.27785 -3.189,-21.94758 -6.3067,-21.92969 z"
                   id="path113" />
                <path
                   style="fill:currentColor"
                   d="m 2738.7698,651.18761 c -6.7892,0 -6.9296,1.54251 -1.293,14.23242 2.7529,6.19769 6.8608,15.76759 9.1289,21.26758 2.2681,5.49999 5.0641,10.7875 6.2129,11.75 2.8743,2.40813 5.8672,2.2746 5.8672,-0.26172 0,-1.10642 -2.9781,-9.99393 -6.6191,-19.75 -3.641,-9.75607 -7.2588,-19.87578 -8.0391,-22.48828 -1.3725,-4.59538 -1.5439,-4.75 -5.2578,-4.75 z"
                   id="path102" />
                <path
                   style="fill:currentColor"
                   d="m 2752.0491,641.1878 c -0.8043,0 -2.7894,0.68627 -4.4121,1.52539 -3.3268,1.72039 -3.9879,5.37031 -1.3653,7.54688 0.8727,0.72422 4.5446,5.61547 8.1602,10.87109 3.6155,5.25561 8.9876,12.81914 11.9375,16.80664 2.9499,3.9875 5.8623,7.25 6.4707,7.25 1.8905,0 0.3333,-8.26791 -2.3613,-12.53711 -1.3755,-2.17948 -5.7562,-10.1504 -9.7344,-17.71289 -4.2613,-8.10075 -7.8337,-13.75 -8.6953,-13.75 z"
                   id="path98" />
                <path
                   style="fill:currentColor"
                   d="m 2753.0979,607.9085 c -0.1159,0.0778 -0.1006,0.3282 0.076,0.7793 0.431,1.1 1.5711,4.72851 2.5332,8.06445 0.962,3.33594 2.7027,7.93423 3.8672,10.2168 2.5093,4.91869 9.3984,11.89999 13.6113,13.79297 3.0597,1.37483 7.739,1.85471 8.7012,0.89258 0.2934,-0.29344 0.2412,-1.95993 -0.1153,-3.70313 -0.5142,-2.514 -1.8162,-3.8521 -6.291,-6.46679 -4.253,-2.48517 -6.7484,-4.95764 -10.1445,-10.04688 -4.1341,-6.19504 -11.427,-14.07399 -12.2383,-13.5293 z"
                   id="path95" />
                <path
                   style="fill:currentColor"
                   d="m 2722.5862,595.21706 c -8.1023,-0.69344 -18.3003,1.67298 -22.9512,6.01758 -2.8735,2.68435 -2.9492,3.00498 -2.9492,12.44726 0,11.21788 3.1758,28.75988 5.8848,32.50586 0.9944,1.375 2.8889,3.05499 4.2109,3.73438 3.6055,1.85294 11.8603,1.51697 18.4551,-0.75196 11.1573,-3.83868 24.4972,-14.34505 26.0449,-20.51172 1.1793,-4.69837 -0.1753,-12.23878 -2.9551,-16.43945 -3.0885,-4.66701 -12.1749,-12.10763 -18.6191,-15.24805 -1.9524,-0.95145 -4.4203,-1.52276 -7.1211,-1.7539 z"
                   id="path91" />
                <path
                   style="fill:currentColor"
                   d="m 2430.8264,484.18765 c -0.6432,0 -2.7346,1.4625 -4.6465,3.25 -5.3314,4.98464 -6.8908,12.61294 -6.1855,30.25 0.3079,7.69999 0.8668,15.0125 1.2422,16.25 0.9567,3.1538 1.6712,2.86081 5.2812,-2.16602 3.2302,-4.49794 9.0291,-9.15471 17.2481,-13.85156 5.8354,-3.33473 7.2894,-5.12354 6.5527,-8.05859 -1.4649,-5.83675 -16.5256,-25.67383 -19.4922,-25.67383 z"
                   id="path74" />
                <path
                   style="fill:currentColor"
                   d="m 2583.1721,484.89077 c -0.8455,0.34274 -1.797,1.12816 -3.2343,2.50977 -4.8354,4.64814 -15.252,20.4777 -15.252,23.17773 0,2.7415 2.5639,5.14557 10.6113,9.94336 6.0361,3.59866 13.0263,10.25108 15.3692,14.62891 0.6695,1.2509 1.5865,1.87083 2.0625,1.39453 1.6002,-1.60128 3.2002,-19.73691 2.5605,-29.02148 -0.9337,-13.55338 -3.7888,-20.29825 -9.5176,-22.48828 -1.0144,-0.38779 -1.7541,-0.48727 -2.5996,-0.14454 z"
                   id="path75" />
                <path
                   style="fill:currentColor"
                   d="m 2294.842,594.89284 c -6.473,-0.11175 -9.4474,1.18593 -19.2265,8.38281 -9.7446,7.17149 -14.5858,17.36565 -11.9863,25.24219 2.1867,6.62579 15.4049,17.01967 26.5429,20.87109 6.2891,2.17473 14.6841,2.27942 18.6426,0.23242 5.1078,-2.64136 8.5433,-14.70385 9.5801,-33.63671 l 0.5859,-10.70313 -3.4668,-3.4668 c -4.0634,-4.06345 -12.1614,-6.77494 -20.6719,-6.92187 z"
                   id="path90" />
                <path
                   style="fill:currentColor"
                   d="m 2261.4456,607.8362 c -2.1664,1.3389 -9.5188,9.9621 -12.5371,14.70312 -2.2947,3.60435 -4.9947,6.1569 -9,8.51172 -6.5393,3.84453 -7.186,4.59728 -7.2071,8.38672 -0.013,2.41168 0.3664,2.75 3.084,2.75 1.7044,0 4.6316,-0.72777 6.5059,-1.61719 4.7818,-2.26914 12.7473,-11.31873 14.5371,-16.51562 3.9747,-11.54153 5.4538,-16.73581 4.6172,-16.21875 z"
                   id="path94" />
                <path
                   style="fill:currentColor"
                   d="m 2262.3127,641.50006 c -0.8556,0.32834 -3.1997,3.88039 -5.2089,7.89258 -2.0093,4.01217 -6.2477,12.01993 -9.418,17.79492 -5.7736,10.51698 -7.5739,15.26186 -6.4707,17.04688 0.3243,0.52469 0.8157,0.95312 1.0937,0.95312 0.9828,0 5.9752,-6.46351 14.2188,-18.41016 4.5881,-6.64913 9.6506,-13.46053 11.25,-15.13672 3.9617,-4.15202 3.803,-7.05936 -0.5,-9.11132 -1.875,-0.89413 -4.1092,-1.35764 -4.9649,-1.0293 z"
                   id="path100" />
                <path
                   style="fill:currentColor"
                   d="m 2307.0217,653.83993 c -0.8169,0.11905 -1.9425,0.52127 -3.4863,0.96289 -2.1135,0.60457 -2.1393,0.86872 -1.5117,15.25 0.3512,8.04912 0.9217,15.64727 1.2676,16.88477 0.9332,3.33957 2.0454,2.75196 3.7871,-2 1.0595,-2.89085 1.6449,-8.64455 1.832,-17.99023 0.2258,-11.27857 0.5622,-13.46457 -1.8887,-13.10743 z"
                   id="path109" />
                <path
                   style="fill:currentColor"
                   d="m 2275.8147,651.39269 c -3.3055,0.28879 -3.4348,0.4793 -6.6406,9.79492 -1.7981,5.22499 -5.3428,14.90001 -7.877,21.5 -2.5341,6.59999 -4.6084,13.2375 -4.6094,14.75 0,3.04931 2.3349,3.71328 5.2793,1.5 0.9147,-0.6875 5.3135,-9.78331 9.7754,-20.21289 4.462,-10.42959 8.8014,-20.2972 9.6446,-21.92773 1.4192,-2.74449 1.3948,-3.06655 -0.334,-4.33204 -1.0271,-0.75185 -3.3843,-1.23424 -5.2383,-1.07226 z"
                   id="path105" />
                <path
                   style="fill:currentColor"
                   d="m 2289.9475,655.20919 c -1.5654,-0.18672 -3.1628,0.009 -3.5996,0.72852 -0.9162,1.50922 -6.7772,43.51087 -6.2598,44.85938 0.6753,1.75971 3.0179,1.79539 4.4512,0.0684 1.5115,-1.82124 9.5725,-42.1265 8.8184,-44.09179 -0.3103,-0.80857 -1.8448,-1.37774 -3.4102,-1.56446 z"
                   id="path114" />
                </g>
              </g>
            </g>
          </g>
        </g>
      </g>
    </g>
  </g>
</svg>
